<?xml version="1.0" encoding="UTF-8"?>
<svg version="1.1" xmlns="http://www.w3.org/2000/svg" width="1382" height="978">
<path d="M0 0 C0.80214432 -0.00974854 1.60428864 -0.01949707 2.43074036 -0.02954102 C21.4466152 -0.21283208 39.62045564 0.41088034 58.3203125 4.23828125 C59.2474707 4.4202002 60.17462891 4.60211914 61.12988281 4.78955078 C111.68172156 14.90896179 158.66159613 44.60769039 190.3203125 85.23828125 C191.09632813 86.18574219 191.87234375 87.13320312 192.671875 88.109375 C201.55121009 99.17330841 209.18220995 111.44189796 215.3203125 124.23828125 C218.95148162 122.92414385 222.20276298 121.21769972 225.53222656 119.26879883 C250.63358432 104.58704818 279.09244985 95.26932548 308.3203125 94.23828125 C309.51914063 94.17833984 309.51914063 94.17833984 310.7421875 94.1171875 C369.36684783 92.56964212 425.57839473 119.67012571 467.3203125 159.23828125 C484.89511565 175.9626907 484.89511565 175.9626907 487.3203125 183.23828125 C487.9803125 183.23828125 488.6403125 183.23828125 489.3203125 183.23828125 C489.55363281 182.69816406 489.78695312 182.15804687 490.02734375 181.6015625 C491.68221839 178.57679164 493.78230988 176.03867437 496.0078125 173.42578125 C496.72324219 172.58515137 496.72324219 172.58515137 497.453125 171.72753906 C536.55244712 126.53449308 592.11186436 99.71084026 651.3828125 94.55078125 C653.36107947 94.43073471 655.34031315 94.3251948 657.3203125 94.23828125 C658.16722656 94.19703125 659.01414062 94.15578125 659.88671875 94.11328125 C697.51636971 93.19408367 736.4826263 106.58685468 766.3203125 129.23828125 C767.17367188 129.88152344 768.02703125 130.52476562 768.90625 131.1875 C800.22333029 155.53974067 824.4113467 188.28076064 830.3203125 228.23828125 C830.40536343 230.18003557 830.4441073 232.12421509 830.44336033 234.06783104 C830.44535138 235.21536429 830.44734243 236.36289754 830.44939381 237.54520452 C830.44648097 238.79617662 830.44356813 240.04714871 830.44056702 241.33602905 C830.44100329 242.68589251 830.44187924 244.03575588 830.44315618 245.38561881 C830.44539007 249.08898663 830.44139498 252.79232549 830.43637812 256.49568963 C830.43205795 260.49153151 830.43352116 264.48737177 830.4342804 268.48321533 C830.43480463 275.40432497 830.43166826 282.32542518 830.42604256 289.24653244 C830.41791404 299.25328029 830.41531095 309.26002358 830.41405457 319.26677437 C830.41186618 335.50223368 830.40521185 351.73768796 830.39575195 367.97314453 C830.38657234 383.74397761 830.37949419 399.51480932 830.37524414 415.28564453 C830.37498142 416.25782875 830.37471869 417.23001297 830.37444801 418.23165731 C830.37314297 423.10884073 830.37187926 427.98602415 830.37063611 432.86320758 C830.36027012 473.32156993 830.34183537 513.77992299 830.3203125 554.23828125 C799.6303125 554.23828125 768.9403125 554.23828125 737.3203125 554.23828125 C737.3109668 545.32505859 737.30162109 536.41183594 737.29199219 527.22851562 C737.25924346 498.66803436 737.20692928 470.10761866 737.14239155 441.54719225 C737.1323748 437.10649438 737.12253055 432.66579614 737.11279297 428.22509766 C737.10988091 426.89907423 737.10988091 426.89907423 737.10691002 425.54626244 C737.07593896 411.25635196 737.05892306 396.96645751 737.04711828 382.67651981 C737.03468131 367.99979592 737.00712265 353.32315582 736.96569943 338.64648485 C736.94063672 329.59948821 736.92718992 320.55263063 736.92888293 311.50559878 C736.92891282 305.29095893 736.91417614 299.07646012 736.88814822 292.8618753 C736.87358603 289.28318398 736.86522641 285.70478183 736.87450981 282.12606621 C736.94578884 256.68957453 736.94578884 256.68957453 728.5703125 232.92578125 C728.22524658 232.26755371 727.88018066 231.60932617 727.5246582 230.93115234 C716.10723113 209.68255594 698.62598756 197.45364012 675.8828125 190.4921875 C649.75732917 184.09320932 620.4925654 194.85483448 598.3203125 208.23828125 C567.67880085 227.44745359 546.39868686 258.03883317 538.3203125 293.23828125 C536.3227556 302.51054959 535.87160601 311.74032732 535.48742676 321.18276978 C532.96451282 381.30510416 513.72861108 437.09555146 470.92822266 480.59960938 C469.43114257 482.12533084 467.95717989 483.66986521 466.48828125 485.22265625 C451.04649048 501.2296663 431.9852878 513.99791057 412.3203125 524.23828125 C411.24837646 524.79878174 411.24837646 524.79878174 410.15478516 525.37060547 C386.33673816 537.64875895 360.5482952 544.83721209 334.0078125 548.05078125 C332.99541504 548.17493408 331.98301758 548.29908691 330.93994141 548.42700195 C321.93814583 549.40483048 313.53043853 549.23828125 304.3203125 549.23828125 C304.3203125 518.54828125 304.3203125 487.85828125 304.3203125 456.23828125 C311.5803125 455.57828125 318.8403125 454.91828125 326.3203125 454.23828125 C362.45977102 447.83382025 395.17067358 429.55586621 416.6875 398.97265625 C437.73001988 367.72250609 445.54058722 331.77463341 438.50390625 294.69140625 C434.33904035 274.77708531 426.01284471 256.17194222 413.3203125 240.23828125 C412.90910156 239.72023926 412.49789062 239.20219727 412.07421875 238.66845703 C392.23861419 213.88130876 366.80915744 199.15854831 336.3203125 191.23828125 C335.29292969 190.97015625 334.26554688 190.70203125 333.20703125 190.42578125 C311.43101121 185.66744 291.70492765 191.75142525 273.22265625 203.1484375 C255.71720801 215.13880781 244.78495973 233.90059111 240.747508 254.55110697 C240.10563215 258.58867821 240.04023861 262.54004193 240.05859947 266.62102699 C240.05460341 267.5138965 240.05060735 268.40676601 240.04649019 269.32669216 C240.03556434 272.3038403 240.03871037 275.28080108 240.0418396 278.25796509 C240.036834 280.41974355 240.03095743 282.58152015 240.02428687 284.74329412 C240.00850489 290.67233176 240.00505717 296.60132199 240.00363827 302.5303781 C239.99994109 308.92836716 239.984784 315.3263303 239.97102356 321.7243042 C239.94875693 332.8054847 239.93367077 343.88665548 239.92365646 354.96785355 C239.91312557 366.58726597 239.89848406 378.2066613 239.87837601 389.82606125 C239.87650271 390.91053968 239.87650271 390.91053968 239.87459156 392.01692677 C239.86822764 395.68874073 239.8617905 399.36055456 239.85532518 403.03236835 C239.80968619 429.02661556 239.7732284 455.02086832 239.7421875 481.01513672 C239.7120143 506.26514499 239.67767147 531.51514198 239.63769531 556.76513672 C239.63584881 557.93300961 239.63584881 557.93300961 239.633965 559.12447588 C239.62159794 566.94345457 239.60914623 574.76243312 239.59663252 582.58141157 C239.57114352 598.50897536 239.5462194 614.43654001 239.52163696 630.36410522 C239.52050605 631.09639754 239.51937514 631.82868986 239.51820997 632.58317286 C239.44277956 681.46819621 239.38096907 730.35323759 239.3203125 779.23828125 C208.6303125 779.23828125 177.9403125 779.23828125 146.3203125 779.23828125 C146.31444626 772.43507263 146.30858002 765.63186401 146.30253601 758.62249756 C146.26276134 713.64499032 146.21964615 668.66748982 146.16133118 623.69000244 C146.16033561 622.92133187 146.15934004 622.15266129 146.15831431 621.36069767 C146.13665049 604.65120632 146.11432742 587.94171592 146.09132622 571.23222636 C146.08004873 563.03665367 146.06891677 554.8410808 146.05786133 546.64550781 C146.05675876 545.82999527 146.0556562 545.01448273 146.05452022 544.17425768 C146.01891837 517.79098465 145.9929062 491.40771287 145.97192281 465.0244245 C145.95028972 437.88843761 145.91887063 410.75247894 145.87532137 383.61651796 C145.86916007 379.77454006 145.86310943 375.93256199 145.85712624 372.0905838 C145.85594535 371.33450518 145.85476447 370.57842656 145.85354781 369.79943647 C145.83490253 357.6799419 145.82642527 345.56046101 145.82185126 333.44095385 C145.81702045 321.22570088 145.80123774 309.01049951 145.77464684 296.79527423 C145.76056139 290.18942163 145.75143021 283.58363419 145.75530434 276.97776031 C145.78065606 222.31999806 145.0034271 170.27549963 104.5703125 129.05078125 C82.71595019 107.43947573 51.0964629 94.34566897 20.3203125 93.23828125 C19.12019531 93.18671875 17.92007812 93.13515625 16.68359375 93.08203125 C-20.11372341 92.01997695 -54.30856546 105.39181626 -81.11328125 130.421875 C-89.07602953 138.02400132 -95.69579337 146.00906796 -101.6796875 155.23828125 C-102.30230469 156.17671875 -102.92492187 157.11515625 -103.56640625 158.08203125 C-121.47388882 186.73400337 -127.07978198 223.21148483 -119.64453125 256.015625 C-113.45349446 281.50163164 -101.95632162 303.3006477 -83.6796875 322.23828125 C-82.78056641 323.17607422 -82.78056641 323.17607422 -81.86328125 324.1328125 C-71.12459824 334.40762151 -55.81618692 339.46786149 -42.140625 344.5546875 C-26.79442854 350.42235085 -11.4308476 357.77120746 1.3203125 368.23828125 C2.29226563 369.01042969 3.26421875 369.78257812 4.265625 370.578125 C17.98879794 381.67668239 30.65010234 394.30581441 41.08496094 408.55419922 C42.32550998 410.24536667 43.59078438 411.9157401 44.859375 413.5859375 C63.38444393 438.33602959 75.82677357 468.1120606 82.3203125 498.23828125 C82.51786133 499.15206543 82.71541016 500.06584961 82.91894531 501.00732422 C89.04721635 530.94157123 89.02039002 564.41615481 82.3203125 594.23828125 C82.12775879 595.10727051 81.93520508 595.97625977 81.73681641 596.87158203 C74.27745391 629.51953534 59.62646582 659.70786511 39.3203125 686.23828125 C38.18142578 687.72908203 38.18142578 687.72908203 37.01953125 689.25 C32.53233408 694.90336141 27.66801282 700.20344099 22.7578125 705.48828125 C22.14437988 706.15037598 21.53094727 706.8124707 20.89892578 707.49462891 C16.61289178 712.04789764 12.09538959 716.20407116 7.3203125 720.23828125 C6.74901611 720.72635254 6.17771973 721.21442383 5.58911133 721.71728516 C-30.93618898 752.6294944 -79.54909716 773.01072103 -127.6796875 774.23828125 C-128.55189941 774.2640625 -129.42411133 774.28984375 -130.32275391 774.31640625 C-191.85404647 775.91800163 -251.46453872 756.03793028 -296.45703125 713.33203125 C-297.53182484 712.30138038 -298.6060388 711.27012473 -299.6796875 710.23828125 C-300.22512207 709.72007812 -300.77055664 709.201875 -301.33251953 708.66796875 C-309.61200242 700.77487793 -316.90306156 692.45141706 -323.6796875 683.23828125 C-324.81664062 681.70107422 -324.81664062 681.70107422 -325.9765625 680.1328125 C-344.20056262 654.63859957 -356.78336902 625.88250845 -363.5546875 595.30078125 C-363.74579102 594.43928467 -363.93689453 593.57778809 -364.13378906 592.69018555 C-366.93962061 579.11041915 -367.98240204 565.52475315 -367.92019653 551.67881775 C-367.92107171 550.19571613 -367.9228284 548.71261482 -367.92537487 547.22951514 C-367.92979111 543.2089229 -367.92192492 539.18843971 -367.91181874 535.16786134 C-367.9031027 530.81160989 -367.90611011 526.45536356 -367.90762329 522.09910583 C-367.90866703 514.56976324 -367.90244416 507.04045556 -367.89114761 499.51112175 C-367.87482585 488.62525578 -367.86967781 477.73940652 -367.86717163 466.85352964 C-367.86280495 449.18774394 -367.84952385 431.5219768 -367.83056641 413.85620117 C-367.81218093 396.70548596 -367.79803751 379.55477582 -367.78955078 362.40405273 C-367.78902533 361.34514861 -367.78849989 360.28624448 -367.78795852 359.19525235 C-367.78534826 353.8825238 -367.78282089 348.56979522 -367.78033471 343.25706661 C-367.75963423 299.25078832 -367.72278182 255.24454442 -367.6796875 211.23828125 C-336.9896875 211.23828125 -306.2996875 211.23828125 -274.6796875 211.23828125 C-274.6703418 221.76114014 -274.66099609 232.28399902 -274.65136719 243.12573242 C-274.61860967 276.85448431 -274.56628942 310.58318073 -274.50176655 344.3118862 C-274.49174995 349.55728909 -274.48190568 354.80269229 -274.47216797 360.0480957 C-274.4702266 361.09229297 -274.46828522 362.13649023 -274.46628502 363.21232984 C-274.43532469 380.08547366 -274.41830107 396.95860389 -274.40649328 413.83177074 C-274.39405073 431.16517091 -274.36647958 448.4985002 -274.32507443 465.8318556 C-274.30002764 476.51411142 -274.28656375 487.19624959 -274.28825793 497.87853519 C-274.28828785 505.21919505 -274.27352776 512.5597357 -274.24752322 519.90034904 C-274.23297939 524.12570621 -274.22458537 528.35081901 -274.23388481 532.57619667 C-274.31759943 575.69447534 -264.5999132 611.97014865 -233.6796875 643.23828125 C-226.32129822 650.51098332 -218.45257795 656.77253649 -209.6796875 662.23828125 C-209.07479492 662.61871582 -208.46990234 662.99915039 -207.84667969 663.39111328 C-179.62370474 680.73390578 -141.50584287 685.12395964 -109.49609375 677.55859375 C-90.74903084 672.62056504 -72.81006446 664.46310929 -57.6796875 652.23828125 C-57.12684082 651.79613281 -56.57399414 651.35398437 -56.00439453 650.8984375 C-47.89143521 644.36379742 -40.94058928 637.62276375 -34.6796875 629.23828125 C-34.02871094 628.42488281 -33.37773437 627.61148438 -32.70703125 626.7734375 C-10.79331699 598.49908252 -3.05104899 562.36412558 -7.18359375 527.2265625 C-11.10053728 500.54126682 -23.29803712 474.88724147 -41.6796875 455.23828125 C-42.65252686 454.16489502 -42.65252686 454.16489502 -43.64501953 453.06982422 C-49.05267117 447.33552784 -54.51641223 443.60100068 -61.5546875 440.11328125 C-62.55701416 439.60249023 -63.55934082 439.09169922 -64.59204102 438.56542969 C-71.55799853 435.09099913 -78.60932259 432.22426447 -85.95751953 429.67700195 C-93.22975191 427.13720997 -99.96680168 423.84862704 -106.76220703 420.24121094 C-108.67652207 419.23993691 -110.60876268 418.28609365 -112.55078125 417.33984375 C-121.12556078 413.08792304 -128.16400175 408.00071995 -135.22900391 401.55810547 C-136.55483847 400.35186824 -137.90330762 399.17063092 -139.25390625 397.9921875 C-150.39082865 388.21823789 -160.54122384 377.86853517 -169.38867188 365.97363281 C-170.22975863 364.84306461 -171.07713264 363.71713829 -171.93164062 362.59667969 C-207.53082802 315.91153299 -221.24849509 255.46582946 -214.08789062 197.66210938 C-209.23362585 162.12889123 -196.65114029 127.48192986 -175.6796875 98.23828125 C-175.1964502 97.55733398 -174.71321289 96.87638672 -174.21533203 96.17480469 C-168.3355959 87.94355678 -162.11932766 80.22149216 -155.15234375 72.88671875 C-153.38520967 70.99395903 -151.73105528 69.11337434 -150.09765625 67.11328125 C-148.12925324 64.77282145 -146.25646523 62.82214968 -143.9296875 60.86328125 C-141.81985773 59.07051309 -139.72568267 57.28075224 -137.69140625 55.40234375 C-101.55624679 22.05728135 -49.30365649 0.50267223 0 0 Z " fill="#A21543" transform="translate(459.6796875,92.76171875)"/>
<path d="M0 0 C0.80214432 -0.00974854 1.60428864 -0.01949707 2.43074036 -0.02954102 C21.4466152 -0.21283208 39.62045564 0.41088034 58.3203125 4.23828125 C59.2474707 4.4202002 60.17462891 4.60211914 61.12988281 4.78955078 C111.68172156 14.90896179 158.66159613 44.60769039 190.3203125 85.23828125 C191.09632813 86.18574219 191.87234375 87.13320312 192.671875 88.109375 C200.22945416 97.52635856 206.37405743 107.74334412 212.3203125 118.23828125 C212.95066406 119.34300781 213.58101562 120.44773437 214.23046875 121.5859375 C215.3203125 124.23828125 215.3203125 124.23828125 215.359375 126.34765625 C213.7586229 129.26030293 211.41190368 130.6143052 208.6953125 132.48828125 C204.28492232 135.6390216 200.61710516 138.83300093 197.203125 143.046875 C195.32861992 145.22861224 193.31175555 147.18381659 191.22216797 149.1574707 C170.02116331 169.37198794 156.26784696 197.04730139 148.8659668 225.12329102 C148.40378265 226.84342165 147.8688669 228.54371592 147.3203125 230.23828125 C146.6603125 230.56828125 146.0003125 230.89828125 145.3203125 231.23828125 C145.25561768 230.5105249 145.19092285 229.78276855 145.12426758 229.03295898 C141.17305064 185.81376809 129.73955616 149.48540584 95.58496094 120.77978516 C74.97760609 104.32096977 46.67744456 94.18666381 20.3203125 93.23828125 C19.12019531 93.18671875 17.92007812 93.13515625 16.68359375 93.08203125 C-20.11372341 92.01997695 -54.30856546 105.39181626 -81.11328125 130.421875 C-89.07602953 138.02400132 -95.69579337 146.00906796 -101.6796875 155.23828125 C-102.30230469 156.17671875 -102.92492187 157.11515625 -103.56640625 158.08203125 C-121.47388882 186.73400337 -127.07978198 223.21148483 -119.64453125 256.015625 C-113.45349446 281.50163164 -101.95632162 303.3006477 -83.6796875 322.23828125 C-82.78056641 323.17607422 -82.78056641 323.17607422 -81.86328125 324.1328125 C-71.12459824 334.40762151 -55.81618692 339.46786149 -42.140625 344.5546875 C-26.79442854 350.42235085 -11.4308476 357.77120746 1.3203125 368.23828125 C2.29226563 369.01042969 3.26421875 369.78257812 4.265625 370.578125 C17.98879794 381.67668239 30.65010234 394.30581441 41.08496094 408.55419922 C42.32550998 410.24536667 43.59078438 411.9157401 44.859375 413.5859375 C63.38444393 438.33602959 75.82677357 468.1120606 82.3203125 498.23828125 C82.51786133 499.15206543 82.71541016 500.06584961 82.91894531 501.00732422 C89.04721635 530.94157123 89.02039002 564.41615481 82.3203125 594.23828125 C82.12775879 595.10727051 81.93520508 595.97625977 81.73681641 596.87158203 C74.27745391 629.51953534 59.62646582 659.70786511 39.3203125 686.23828125 C38.18142578 687.72908203 38.18142578 687.72908203 37.01953125 689.25 C32.53233408 694.90336141 27.66801282 700.20344099 22.7578125 705.48828125 C22.14437988 706.15037598 21.53094727 706.8124707 20.89892578 707.49462891 C16.61289178 712.04789764 12.09538959 716.20407116 7.3203125 720.23828125 C6.74901611 720.72635254 6.17771973 721.21442383 5.58911133 721.71728516 C-30.93618898 752.6294944 -79.54909716 773.01072103 -127.6796875 774.23828125 C-128.55189941 774.2640625 -129.42411133 774.28984375 -130.32275391 774.31640625 C-191.85404647 775.91800163 -251.46453872 756.03793028 -296.45703125 713.33203125 C-297.53182484 712.30138038 -298.6060388 711.27012473 -299.6796875 710.23828125 C-300.22512207 709.72007812 -300.77055664 709.201875 -301.33251953 708.66796875 C-309.61200242 700.77487793 -316.90306156 692.45141706 -323.6796875 683.23828125 C-324.81664062 681.70107422 -324.81664062 681.70107422 -325.9765625 680.1328125 C-344.20056262 654.63859957 -356.78336902 625.88250845 -363.5546875 595.30078125 C-363.74579102 594.43928467 -363.93689453 593.57778809 -364.13378906 592.69018555 C-366.93962061 579.11041915 -367.98240204 565.52475315 -367.92019653 551.67881775 C-367.92107171 550.19571613 -367.9228284 548.71261482 -367.92537487 547.22951514 C-367.92979111 543.2089229 -367.92192492 539.18843971 -367.91181874 535.16786134 C-367.9031027 530.81160989 -367.90611011 526.45536356 -367.90762329 522.09910583 C-367.90866703 514.56976324 -367.90244416 507.04045556 -367.89114761 499.51112175 C-367.87482585 488.62525578 -367.86967781 477.73940652 -367.86717163 466.85352964 C-367.86280495 449.18774394 -367.84952385 431.5219768 -367.83056641 413.85620117 C-367.81218093 396.70548596 -367.79803751 379.55477582 -367.78955078 362.40405273 C-367.78902533 361.34514861 -367.78849989 360.28624448 -367.78795852 359.19525235 C-367.78534826 353.8825238 -367.78282089 348.56979522 -367.78033471 343.25706661 C-367.75963423 299.25078832 -367.72278182 255.24454442 -367.6796875 211.23828125 C-336.9896875 211.23828125 -306.2996875 211.23828125 -274.6796875 211.23828125 C-274.6703418 221.76114014 -274.66099609 232.28399902 -274.65136719 243.12573242 C-274.61860967 276.85448431 -274.56628942 310.58318073 -274.50176655 344.3118862 C-274.49174995 349.55728909 -274.48190568 354.80269229 -274.47216797 360.0480957 C-274.4702266 361.09229297 -274.46828522 362.13649023 -274.46628502 363.21232984 C-274.43532469 380.08547366 -274.41830107 396.95860389 -274.40649328 413.83177074 C-274.39405073 431.16517091 -274.36647958 448.4985002 -274.32507443 465.8318556 C-274.30002764 476.51411142 -274.28656375 487.19624959 -274.28825793 497.87853519 C-274.28828785 505.21919505 -274.27352776 512.5597357 -274.24752322 519.90034904 C-274.23297939 524.12570621 -274.22458537 528.35081901 -274.23388481 532.57619667 C-274.31759943 575.69447534 -264.5999132 611.97014865 -233.6796875 643.23828125 C-226.32129822 650.51098332 -218.45257795 656.77253649 -209.6796875 662.23828125 C-209.07479492 662.61871582 -208.46990234 662.99915039 -207.84667969 663.39111328 C-179.62370474 680.73390578 -141.50584287 685.12395964 -109.49609375 677.55859375 C-90.74903084 672.62056504 -72.81006446 664.46310929 -57.6796875 652.23828125 C-57.12684082 651.79613281 -56.57399414 651.35398437 -56.00439453 650.8984375 C-47.89143521 644.36379742 -40.94058928 637.62276375 -34.6796875 629.23828125 C-34.02871094 628.42488281 -33.37773437 627.61148438 -32.70703125 626.7734375 C-10.79331699 598.49908252 -3.05104899 562.36412558 -7.18359375 527.2265625 C-11.10053728 500.54126682 -23.29803712 474.88724147 -41.6796875 455.23828125 C-42.65252686 454.16489502 -42.65252686 454.16489502 -43.64501953 453.06982422 C-49.05267117 447.33552784 -54.51641223 443.60100068 -61.5546875 440.11328125 C-62.55701416 439.60249023 -63.55934082 439.09169922 -64.59204102 438.56542969 C-71.55799853 435.09099913 -78.60932259 432.22426447 -85.95751953 429.67700195 C-93.22975191 427.13720997 -99.96680168 423.84862704 -106.76220703 420.24121094 C-108.67652207 419.23993691 -110.60876268 418.28609365 -112.55078125 417.33984375 C-121.12556078 413.08792304 -128.16400175 408.00071995 -135.22900391 401.55810547 C-136.55483847 400.35186824 -137.90330762 399.17063092 -139.25390625 397.9921875 C-150.39082865 388.21823789 -160.54122384 377.86853517 -169.38867188 365.97363281 C-170.22975863 364.84306461 -171.07713264 363.71713829 -171.93164062 362.59667969 C-207.53082802 315.91153299 -221.24849509 255.46582946 -214.08789062 197.66210938 C-209.23362585 162.12889123 -196.65114029 127.48192986 -175.6796875 98.23828125 C-175.1964502 97.55733398 -174.71321289 96.87638672 -174.21533203 96.17480469 C-168.3355959 87.94355678 -162.11932766 80.22149216 -155.15234375 72.88671875 C-153.38520967 70.99395903 -151.73105528 69.11337434 -150.09765625 67.11328125 C-148.12925324 64.77282145 -146.25646523 62.82214968 -143.9296875 60.86328125 C-141.81985773 59.07051309 -139.72568267 57.28075224 -137.69140625 55.40234375 C-101.55624679 22.05728135 -49.30365649 0.50267223 0 0 Z " fill="#521E4C" transform="translate(459.6796875,92.76171875)"/>
<path d="M0 0 C30.69 0 61.38 0 93 0 C93.0093457 10.52285889 93.01869141 21.04571777 93.02832031 31.88745117 C93.06107783 65.61620306 93.11339808 99.34489948 93.17792095 133.07360495 C93.18793755 138.31900784 93.19778182 143.56441104 93.20751953 148.80981445 C93.2094609 149.85401172 93.21140228 150.89820898 93.21340248 151.97404859 C93.24436281 168.84719241 93.26138643 185.72032264 93.27319422 202.59348949 C93.28563677 219.92688966 93.31320792 237.26021895 93.35461307 254.59357435 C93.37965986 265.27583017 93.39312375 275.95796834 93.39142957 286.64025394 C93.39139965 293.9809138 93.40615974 301.32145445 93.43216428 308.66206779 C93.44670811 312.88742496 93.45510213 317.11253776 93.44580269 321.33791542 C93.36208807 364.45619409 103.0797743 400.7318674 134 432 C146.59692819 444.45023907 160.36534794 452.31408219 176 461 C176 492.68 176 524.36 176 557 C134.67704694 549.48673581 98.00452494 527.83622319 68 499 C67.45456543 498.48179687 66.90913086 497.96359375 66.34716797 497.4296875 C58.06768508 489.53659668 50.77662594 481.21313581 44 472 C43.24203125 470.97519531 42.4840625 469.95039062 41.703125 468.89453125 C23.47912488 443.40031832 10.89631848 414.6442272 4.125 384.0625 C3.93389648 383.20100342 3.74279297 382.33950684 3.54589844 381.4519043 C0.74006689 367.8721379 -0.30271454 354.2864719 -0.24050903 340.4405365 C-0.24138421 338.95743488 -0.2431409 337.47433357 -0.24568737 335.99123389 C-0.25010361 331.97064165 -0.24223742 327.95015846 -0.23213124 323.92958009 C-0.2234152 319.57332864 -0.22642261 315.21708231 -0.22793579 310.86082458 C-0.22897953 303.33148199 -0.22275666 295.80217431 -0.21146011 288.2728405 C-0.19513835 277.38697453 -0.18999031 266.50112527 -0.18748413 255.61524839 C-0.18311745 237.94946269 -0.16983635 220.28369555 -0.15087891 202.61791992 C-0.13249343 185.46720471 -0.11835001 168.31649457 -0.10986328 151.16577148 C-0.10933783 150.10686736 -0.10881239 149.04796323 -0.10827102 147.9569711 C-0.10566076 142.64424255 -0.10313339 137.33151397 -0.10064721 132.01878536 C-0.07994673 88.01250707 -0.04309432 44.00626317 0 0 Z " fill="#A31543" transform="translate(92,304)"/>
<path d="M0 0 C0.99 0.495 0.99 0.495 2 1 C2.02505615 1.59949463 2.0501123 2.19898926 2.07592773 2.81665039 C2.19285773 5.56543324 2.31513947 8.31395375 2.4375 11.0625 C2.47681641 12.00544922 2.51613281 12.94839844 2.55664062 13.91992188 C2.61948242 15.30727539 2.61948242 15.30727539 2.68359375 16.72265625 C2.72025146 17.56578369 2.75690918 18.40891113 2.79467773 19.27758789 C3.04027038 22.53395358 3.53817247 25.76720731 4 29 C32.71 29.33 61.42 29.66 91 30 C86.25526503 77.44734973 62.84500942 122.57778679 29.60791016 156.36132812 C28.11083007 157.88704959 26.63686739 159.43158396 25.16796875 160.984375 C9.72617798 176.99138505 -9.3350247 189.75962932 -29 200 C-29.71462402 200.37366699 -30.42924805 200.74733398 -31.16552734 201.13232422 C-54.98357434 213.4104777 -80.7720173 220.59893084 -107.3125 223.8125 C-108.32489746 223.93665283 -109.33729492 224.06080566 -110.38037109 224.1887207 C-119.38216667 225.16654923 -127.78987397 225 -137 225 C-137 194.31 -137 163.62 -137 132 C-126.11 131.01 -126.11 131.01 -115 130 C-78.86054148 123.595539 -46.14963892 105.31758496 -24.6328125 74.734375 C-9.36460358 52.05962768 -1.23689152 27.29691638 0 0 Z " fill="#521D4C" transform="translate(901,417)"/>
<path d="M0 0 C30.69 0 61.38 0 93 0 C93 74.25 93 148.5 93 225 C62.31 225 31.62 225 0 225 C0 150.75 0 76.5 0 0 Z " fill="#521E4D" transform="translate(606,647)"/>
<path d="M0 0 C1.04499664 -0.00857025 2.08999329 -0.0171405 3.16665649 -0.02597046 C5.36335368 -0.0373865 7.56012641 -0.03850995 9.75683594 -0.02978516 C13.08662029 -0.02346586 16.41284136 -0.07045544 19.7421875 -0.12109375 C41.10892072 -0.24881871 41.10892072 -0.24881871 49.7265625 6.6015625 C57.26577199 14.36213366 59.19095694 22.11507329 59.16015625 32.65234375 C59.1653981 33.70632858 59.17063995 34.76031342 59.17604065 35.84623718 C59.18244402 38.06927615 59.18114577 40.29234907 59.17260742 42.51538086 C59.16411536 45.8930388 59.1928554 49.26899395 59.22460938 52.64648438 C59.22622219 54.81510366 59.22564232 56.98372592 59.22265625 59.15234375 C59.23389023 60.1505867 59.24512421 61.14882965 59.25669861 62.17732239 C59.17325308 70.69597791 57.31958733 78.06822898 51.4765625 84.4765625 C43.54366473 91.69447807 35.3454667 92.75513193 25 92.83984375 C24.05653717 92.8479155 23.11307434 92.85598724 22.14102173 92.86430359 C20.14562803 92.87810944 18.15021105 92.88884718 16.15478516 92.89672852 C14.12997435 92.90822392 12.10519326 92.92863684 10.08056641 92.95825195 C-16.32975618 93.34416605 -16.32975618 93.34416605 -25.7734375 84.4453125 C-30.47684625 78.66403924 -33.36607944 71.71612925 -33.43457031 64.26708984 C-33.44898163 62.99458878 -33.44898163 62.99458878 -33.46368408 61.69638062 C-33.46793396 60.78595001 -33.47218384 59.87551941 -33.4765625 58.9375 C-33.48226257 57.99025055 -33.48796265 57.0430011 -33.49383545 56.06704712 C-33.50327577 54.06147372 -33.50981559 52.05588488 -33.51367188 50.05029297 C-33.52333601 47.00850652 -33.55435157 43.96740803 -33.5859375 40.92578125 C-33.59247236 38.97135815 -33.59772093 37.01693025 -33.6015625 35.0625 C-33.6139093 34.16421478 -33.6262561 33.26592957 -33.63897705 32.34042358 C-33.60942304 23.80000878 -32.12996436 15.69344847 -26.2109375 9.2265625 C-25.51871094 8.43507812 -24.82648438 7.64359375 -24.11328125 6.828125 C-16.84404524 1.128724 -9.00715045 -0.01670983 0 0 Z " fill="#A31543" transform="translate(125.2734375,186.3984375)"/>
<path d="M0 0 C1.16499023 -0.0309375 1.16499023 -0.0309375 2.35351562 -0.0625 C8.08770067 -0.10201204 8.08770067 -0.10201204 10.17854309 1.44812012 C11.88560388 3.67067377 12.7034658 5.76744109 13.6472168 8.40820312 C14.02738449 9.45939331 14.40755219 10.5105835 14.79924011 11.59362793 C15.39941704 13.29525085 15.39941704 13.29525085 16.01171875 15.03125 C16.42919876 16.19628052 16.84667877 17.36131104 17.27680969 18.56164551 C18.38291336 21.65553963 19.48105886 24.75211811 20.57617188 27.84991455 C21.69357044 31.00079632 22.82567239 34.14637182 23.95507812 37.29296875 C24.80813116 39.68459657 25.66037237 42.07651413 26.51171875 44.46875 C26.91790939 45.60316528 27.32410004 46.73758057 27.74259949 47.90637207 C28.1133107 48.95756226 28.48402191 50.00875244 28.8659668 51.09179688 C29.19445114 52.01762573 29.52293549 52.94345459 29.8613739 53.89733887 C30.5625 56.25 30.5625 56.25 30.5625 59.25 C31.2225 59.25 31.8825 59.25 32.5625 59.25 C32.69206085 58.53006363 32.8216217 57.81012726 32.95510864 57.06837463 C33.54690655 54.32235564 34.337811 51.80018029 35.28076172 49.15600586 C35.63137665 48.16825668 35.98199158 47.18050751 36.3432312 46.16282654 C36.72238678 45.10749222 37.10154236 44.0521579 37.4921875 42.96484375 C37.88318634 41.87160294 38.27418518 40.77836212 38.67703247 39.6519928 C39.50401532 37.34406783 40.33290812 35.03682647 41.16357422 32.73022461 C42.43308338 29.19978239 43.69140367 25.66548207 44.94921875 22.13085938 C45.75452583 19.88777569 46.56049326 17.64492894 47.3671875 15.40234375 C47.74229462 14.3449852 48.11740173 13.28762665 48.50387573 12.19822693 C48.86079498 11.21362991 49.21771423 10.2290329 49.58544922 9.21459961 C49.89553925 8.35031845 50.20562927 7.48603729 50.52511597 6.5955658 C51.62792546 4.10207048 52.69065411 2.23751661 54.5625 0.25 C57.54409657 -0.12866276 60.0926562 -0.26434905 63.0625 -0.1875 C63.83464844 -0.19458984 64.60679687 -0.20167969 65.40234375 -0.20898438 C70.92126807 -0.14681278 70.92126807 -0.14681278 73.23272705 1.28358459 C75.28356502 4.3162823 75.39401163 7.59010214 75.74511719 11.14624023 C75.87985695 12.35157913 75.87985695 12.35157913 76.01731873 13.58126831 C76.31097005 16.23914459 76.5855048 18.89861211 76.859375 21.55859375 C77.05831481 23.40570665 77.25821813 25.252716 77.45904541 27.09962463 C77.87724066 30.97159843 78.28648284 34.84437952 78.68896484 38.71801758 C79.20527375 43.68402043 79.73940273 48.64789902 80.27970505 53.61134243 C80.69366888 57.42569738 81.10032673 61.24080209 81.50455475 65.05620003 C81.69897809 66.88682785 81.89517249 68.71726846 82.09316254 70.54751396 C82.36836384 73.10577958 82.63424285 75.66484258 82.89746094 78.22436523 C82.98049973 78.98138229 83.06353851 79.73839935 83.14909363 80.51835632 C83.80244855 87.04598521 83.80244855 87.04598521 82.5625 90.25 C80.57465101 92.23784899 76.83549593 91.47997787 74.125 91.5 C73.43083984 91.520625 72.73667969 91.54125 72.02148438 91.5625 C70.00390625 91.578125 70.00390625 91.578125 66.5625 91.25 C64.54513745 88.22395618 64.23965978 87.14559686 63.89233398 83.67431641 C63.79560898 82.74970612 63.69888397 81.82509583 63.59922791 80.87246704 C63.455364 79.37711929 63.455364 79.37711929 63.30859375 77.8515625 C63.20281509 76.8244516 63.09703644 75.7973407 62.98805237 74.73910522 C62.65085616 71.45181268 62.32496137 68.16352258 62 64.875 C61.66943387 61.59386068 61.3365145 58.3129792 61.00123596 55.03231812 C60.79322959 52.99034448 60.58830784 50.94805371 60.38682556 48.90542603 C60.29325272 47.97451141 60.19967987 47.0435968 60.10327148 46.08447266 C60.02270004 45.26967438 59.9421286 44.4548761 59.8591156 43.61538696 C59.54718871 41.12789878 59.0825482 38.70169714 58.5625 36.25 C58.34365646 36.86974197 58.12481293 37.48948395 57.89933777 38.12800598 C55.62211569 44.57151817 53.33298759 51.01070903 51.03686523 57.44750977 C50.18125543 59.85104125 49.32869841 62.25566172 48.47924805 64.66137695 C47.2584849 68.11699897 46.02683486 71.56856958 44.79296875 75.01953125 C44.41472458 76.09773636 44.03648041 77.17594147 43.64677429 78.28681946 C43.28662735 79.28763046 42.92648041 80.28844147 42.55541992 81.31958008 C42.24231369 82.20116287 41.92920746 83.08274567 41.60661316 83.99104309 C40.52413792 86.33299702 39.58564069 87.66308602 37.5625 89.25 C34.75 89.6484375 34.75 89.6484375 31.5625 89.625 C30.510625 89.63273438 29.45875 89.64046875 28.375 89.6484375 C25.03517695 89.1752959 24.57740829 88.88091875 22.5625 86.25 C21.47523042 83.6108438 20.50923606 81.02001042 19.6015625 78.3203125 C19.32911713 77.53413544 19.05667175 76.74795837 18.77597046 75.93795776 C17.90491568 73.41972026 17.04573495 70.89763217 16.1875 68.375 C15.05819434 65.08472492 13.92416165 61.79609281 12.7890625 58.5078125 C12.37904999 57.31626556 12.37904999 57.31626556 11.96075439 56.10064697 C9.65050814 49.42001048 7.15382792 42.82696854 4.5625 36.25 C4.49177277 36.90954681 4.42104553 37.56909363 4.34817505 38.24862671 C3.61226507 45.09498484 2.86416874 51.93993213 2.10888672 58.78417969 C1.82839279 61.34080218 1.55103894 63.89777117 1.27685547 66.45507812 C0.88287444 70.12464874 0.47772533 73.79283701 0.0703125 77.4609375 C-0.0506076 78.60992523 -0.17152771 79.75891296 -0.29611206 80.94271851 C-0.41608551 82.0036673 -0.53605896 83.06461609 -0.65966797 84.15771484 C-0.7618161 85.09481293 -0.86396423 86.03191101 -0.96920776 86.99740601 C-1.4375 89.25 -1.4375 89.25 -3.4375 91.25 C-6.00042317 91.42163731 -8.44095857 91.48264558 -11 91.4375 C-11.69802734 91.43685547 -12.39605469 91.43621094 -13.11523438 91.43554688 C-18.29718842 91.39031158 -18.29718842 91.39031158 -19.4375 90.25 C-20.21415941 80.897298 -18.75401635 71.41603818 -17.72265625 62.12890625 C-17.54525579 60.49515918 -17.36829728 58.86136407 -17.1917572 57.2275238 C-16.82296178 53.82583435 -16.45027083 50.42460338 -16.07446289 47.02368164 C-15.59323727 42.66769487 -15.11973452 38.31091205 -14.64884281 33.95379734 C-14.28480649 30.58983035 -13.91782414 27.22619024 -13.5498333 23.86265373 C-13.37415659 22.25557523 -13.19913872 20.64842456 -13.02479744 19.04120064 C-12.78116182 16.80131478 -12.53382689 14.56186867 -12.28540039 12.32250977 C-12.14550186 11.04996841 -12.00560333 9.77742706 -11.86146545 8.46632385 C-11.19197864 3.38740435 -11.19197864 3.38740435 -10.4375 1.25 C-7.16728041 -0.38510979 -3.59016249 0.02371701 0 0 Z " fill="#A31543" transform="translate(787.4375,798.75)"/>
<path d="M0 0 C8.47748248 7.87685113 14.35010388 19.22651343 15.05078125 30.81640625 C15.26960605 39.90847814 15.03884888 47.60720499 10.8125 55.875 C10.4 56.72320313 9.9875 57.57140625 9.5625 58.4453125 C3.81749273 69.11927488 -4.90238944 75.7993455 -16.1875 79.875 C-16.84105469 80.11992188 -17.49460937 80.36484375 -18.16796875 80.6171875 C-29.73283608 84.2173381 -42.38905066 81.97592207 -53.25 77.25 C-64.56515992 71.13934896 -72.41921149 60.86736553 -76.43359375 48.82421875 C-79.73471369 35.91051123 -78.33619144 23.46513379 -72.01171875 11.765625 C-64.48940081 -0.15410792 -54.04677962 -7.41018009 -40.4375 -10.8125 C-25.54335105 -12.24462971 -11.88211331 -9.55139108 0 0 Z M-54.1875 17.875 C-59.01008174 25.35349633 -60.2706572 33.06393274 -59.1875 41.875 C-56.25276689 50.57438744 -51.94814911 56.78581548 -43.87109375 61.1171875 C-36.01882117 64.68081668 -29.05789988 65.16579038 -20.9375 62.1875 C-13.51283541 58.85279149 -8.78618156 54.20816243 -5.1875 46.875 C-2.00759038 38.241463 -2.73254989 30.24307308 -6.1875 21.875 C-10.0357744 14.6991748 -16.42247582 9.70729451 -24.203125 7.234375 C-35.93852002 5.10906724 -46.33905763 8.90276218 -54.1875 17.875 Z " fill="#A31543" transform="translate(1269.1875,809.125)"/>
<path d="M0 0 C8.86990384 7.13003809 14.41969021 17.48572843 16.84375 28.5078125 C17.83410792 44.74318826 15.78824451 56.79613355 4.84375 69.5078125 C-2.99418798 77.9868906 -13.89327908 82.94625137 -25.375 83.7265625 C-39.71817622 84.10073231 -52.16129574 80.30575385 -62.90625 70.5078125 C-71.8124593 60.99399826 -75.97693309 49.23874343 -76.21484375 36.328125 C-75.67728893 21.86616638 -69.73239852 10.59827305 -59.40625 0.7578125 C-42.16470598 -13.61569906 -17.88061424 -12.37390333 0 0 Z M-51.15625 18.5078125 C-56.40642718 26.3489862 -58.03134928 33.09424454 -57.15625 42.5078125 C-55.23320043 50.39694961 -50.97209626 57.40226678 -44.06640625 61.85546875 C-36.88874052 65.58464703 -29.42920987 66.93042924 -21.4921875 64.7890625 C-12.8617251 61.55589834 -7.25296685 56.85583928 -3.15625 48.5078125 C0.02365962 39.8742755 -0.70129989 31.87588558 -4.15625 23.5078125 C-8.0045244 16.3319873 -14.39122582 11.34010701 -22.171875 8.8671875 C-33.10180284 6.88775175 -43.78919959 9.97853022 -51.15625 18.5078125 Z " fill="#A31543" transform="translate(957.15625,807.4921875)"/>
<path d="M0 0 C0.71220703 -0.03738281 1.42441406 -0.07476563 2.15820312 -0.11328125 C6.04236091 -0.17795733 7.8920675 0.13990231 10.9609375 2.58203125 C17.54011482 10.83485894 23.40011462 19.55539409 29.1875 28.375 C34.12520002 21.7038521 38.87086775 14.94252702 43.42578125 8.00390625 C47.77614796 1.51211735 47.77614796 1.51211735 51.1875 0.375 C53.92615287 0.30448886 56.63777588 0.28142235 59.375 0.3125 C60.12458984 0.31701172 60.87417969 0.32152344 61.64648438 0.32617188 C63.49352383 0.33793646 65.34052213 0.35587135 67.1875 0.375 C67.92358398 1.99414062 67.92358398 1.99414062 68.1875 4.375 C66.68383789 7.20898438 66.68383789 7.20898438 64.41015625 10.46875 C64.00598984 11.05611938 63.60182343 11.64348877 63.18540955 12.24865723 C61.88533019 14.13255474 60.56827695 16.00380389 59.25 17.875 C58.39660402 19.10334601 57.54437801 20.33250573 56.69335938 21.5625 C56.27436371 22.16707031 55.85536804 22.77164063 55.42367554 23.39453125 C54.58254553 24.6089212 53.74206894 25.82376399 52.9022522 27.0390625 C50.86758853 29.97797143 48.81311687 32.89621159 46.70263672 35.78125 C45.95385254 36.833125 45.20506836 37.885 44.43359375 38.96875 C43.42123657 40.35610352 43.42123657 40.35610352 42.38842773 41.77148438 C40.90103516 44.29742294 40.90103516 44.29742294 41.76416016 46.87329102 C43.31701647 49.60264241 44.94590408 52.21293314 46.71484375 54.80859375 C47.78387939 56.38616455 47.78387939 56.38616455 48.87451172 57.99560547 C49.64511173 59.12234131 50.41611583 60.24880087 51.1875 61.375 C51.97311339 62.52600355 52.75842959 63.67721001 53.54345703 64.82861328 C54.13569565 65.69711411 54.13569565 65.69711411 54.73989868 66.5831604 C56.34245562 68.93662462 57.94014924 71.29336237 59.53637695 73.65112305 C60.35804098 74.86056092 61.18334957 76.06752941 62.01196289 77.2722168 C63.22730268 79.04099345 64.42927264 80.81820315 65.62890625 82.59765625 C66.69153687 84.15625366 66.69153687 84.15625366 67.77563477 85.74633789 C68.24155029 86.61379639 68.70746582 87.48125488 69.1875 88.375 C68.6925 89.86 68.6925 89.86 68.1875 91.375 C65.30938091 91.56506447 62.44388509 91.70305204 59.5625 91.8125 C58.35013672 91.90047852 58.35013672 91.90047852 57.11328125 91.99023438 C53.81737336 92.08402037 51.25554407 92.14558443 48.51757812 90.17016602 C46.87631995 88.33142 45.5387914 86.43715284 44.1875 84.375 C43.61370605 83.53525635 43.03991211 82.6955127 42.44873047 81.83032227 C39.92875632 78.0864849 37.48809996 74.29354642 35.046875 70.49804688 C34.44875 69.58216797 33.850625 68.66628906 33.234375 67.72265625 C32.69651367 66.88742432 32.15865234 66.05219238 31.60449219 65.19165039 C31.13688477 64.59215576 30.66927734 63.99266113 30.1875 63.375 C29.5275 63.375 28.8675 63.375 28.1875 63.375 C26.74112749 65.30279592 25.42449627 67.22187706 24.125 69.24609375 C23.73304443 69.84301529 23.34108887 70.43993683 22.93725586 71.0549469 C21.68071093 72.96989272 20.43342018 74.89062735 19.1875 76.8125 C17.94081836 78.73026873 16.69215463 80.64661829 15.43774414 82.55934143 C14.65617471 83.75152599 13.87918131 84.94672521 13.10717773 86.14512634 C10.41206266 90.26271867 10.41206266 90.26271867 8.1875 91.375 C5.30379667 91.44694869 2.44510336 91.46791708 -0.4375 91.4375 C-1.23929688 91.43298828 -2.04109375 91.42847656 -2.8671875 91.42382812 C-4.84899006 91.41203168 -6.83075433 91.39409605 -8.8125 91.375 C-9.48876953 89.67797852 -9.48876953 89.67797852 -9.8125 87.375 C-8.72607422 85.08569336 -8.72607422 85.08569336 -6.9921875 82.52734375 C-6.3434668 81.55780762 -5.69474609 80.58827148 -5.02636719 79.58935547 C-4.29579102 78.52861816 -3.56521484 77.46788086 -2.8125 76.375 C-2.02963713 75.22455384 -1.24742767 74.07366281 -0.46582031 72.92236328 C2.46631814 68.61566099 5.41392202 64.31956065 8.37890625 60.03540039 C9.65114776 58.19516002 10.9159472 56.34999102 12.1796875 54.50390625 C12.92589355 53.42181885 13.67209961 52.33973145 14.44091797 51.22485352 C15.99043911 48.69653925 16.81845113 47.25186966 17.1875 44.375 C16.45469798 42.48610226 16.45469798 42.48610226 15.14550781 40.69555664 C14.67461731 39.99125015 14.20372681 39.28694366 13.71856689 38.56129456 C12.93748566 37.43460609 12.93748566 37.43460609 12.140625 36.28515625 C11.61362 35.50361679 11.08661499 34.72207733 10.54364014 33.91685486 C8.85334206 31.41553138 7.14596143 28.92644388 5.4375 26.4375 C3.74729535 23.94959768 2.06059219 21.45934882 0.37420654 18.96885681 C-0.67671546 17.41969889 -1.73058748 15.87253699 -2.78778076 14.32765198 C-9.8125 4.04904357 -9.8125 4.04904357 -9.8125 1.375 C-6.69650206 -0.18299897 -3.41845599 0.06696886 0 0 Z " fill="#A31543" transform="translate(991.8125,798.625)"/>
<path d="M0 0 C0.8359375 1.76953125 0.8359375 1.76953125 1 4 C-0.0390625 6.76171875 -0.0390625 6.76171875 -1.625 9.6875 C-2.13289063 10.66074219 -2.64078125 11.63398437 -3.1640625 12.63671875 C-5 15 -5 15 -7.453125 15.94921875 C-10.31392542 16.00625925 -11.65815886 15.52771359 -14.125 14.125 C-20.8429502 10.38699658 -27.76346003 9.95974459 -35.3203125 11.4609375 C-42.35270435 13.80506812 -47.27344099 18.19585598 -50.875 24.625 C-54.57127617 32.7763905 -55.08016245 41.23703285 -52.0703125 49.68359375 C-48.7443232 56.88181147 -44.08127582 61.48201009 -37 65 C-30.29576668 67.23474444 -22.42290907 67.04688199 -16 64.0625 C-14.6636476 63.38088699 -13.32985637 62.69420175 -12 62 C-9.1875 61 -9.1875 61 -7 61 C-3.14417758 63.80423449 -1.00713358 67.762718 1 72 C0.953125 74.5234375 0.953125 74.5234375 0 77 C-10.99136332 84.79067832 -23.85534724 86.59263018 -36.9609375 84.53515625 C-49.98359822 81.38210516 -60.159408 74.37069692 -67.3125 63.0625 C-74.10271586 50.93975048 -75.36781744 38.48957312 -72 25 C-68.62310071 13.50165792 -60.89915484 3.35377394 -50.328125 -2.47265625 C-34.14314989 -10.14039998 -15.12996931 -11.00361404 0 0 Z " fill="#A31543" transform="translate(1179,806)"/>
<path d="M0 0 C1.73443359 0.00966797 1.73443359 0.00966797 3.50390625 0.01953125 C6.4375 0.1875 6.4375 0.1875 8.4375 1.1875 C8.46062228 12.77438402 8.4784145 24.36126259 8.48931217 35.94816494 C8.49454125 41.32783762 8.50163935 46.70749458 8.51293945 52.0871582 C8.52376745 57.27424843 8.52977665 62.46132349 8.53237724 67.64842415 C8.53423165 69.6320628 8.53785256 71.61570058 8.54323006 73.59933281 C8.55043932 76.36759136 8.55149099 79.13578638 8.55102539 81.90405273 C8.55462067 82.73267319 8.55821594 83.56129364 8.56192017 84.4150238 C8.55155216 90.07344784 8.55155216 90.07344784 7.4375 91.1875 C4.94691086 91.28747642 2.49022605 91.32629627 0 91.3125 C-0.69416016 91.31636719 -1.38832031 91.32023438 -2.10351562 91.32421875 C-7.30922012 91.31413994 -7.30922012 91.31413994 -9.5625 90.1875 C-9.63190253 78.74830541 -9.68526158 67.30916062 -9.71793652 55.86979866 C-9.73361606 50.55846871 -9.75489597 45.24728241 -9.78881836 39.93603516 C-9.82133033 34.81376604 -9.83933576 29.6916354 -9.84713173 24.56927109 C-9.85268995 22.61155897 -9.86354328 20.65385474 -9.87969017 18.69620132 C-9.9013561 15.96152404 -9.9044715 13.22742458 -9.90307617 10.49267578 C-9.913862 9.67700134 -9.92464783 8.8613269 -9.9357605 8.02093506 C-9.92326355 5.76882935 -9.92326355 5.76882935 -9.5625 2.1875 C-5.96639031 -0.20990646 -4.26157673 -0.05237692 0 0 Z " fill="#A31543" transform="translate(1082.5625,798.8125)"/>
<path d="M0 0 C8 0 8 0 10.05053711 1.55371094 C10.5378833 2.27333008 11.02522949 2.99294922 11.52734375 3.734375 C12.09259766 4.53746094 12.65785156 5.34054687 13.24023438 6.16796875 C13.80033203 7.02003906 14.36042969 7.87210938 14.9375 8.75 C16.07064835 10.39129251 17.2047793 12.03190702 18.33984375 13.671875 C19.54769531 15.43015625 20.75554687 17.1884375 22 19 C24.97 22.96 27.94 26.92 31 31 C31.33 20.77 31.66 10.54 32 0 C33.98 0 35.96 0 38 0 C39.53084425 1.53084425 39.12715779 2.91203144 39.12939453 5.04492188 C39.13254669 5.90251099 39.13569885 6.7601001 39.13894653 7.64367676 C39.1369223 8.57595093 39.13489807 9.5082251 39.1328125 10.46875 C39.13376923 11.41939331 39.13472595 12.37003662 39.13571167 13.3494873 C39.13639357 15.36368882 39.13453862 17.37789252 39.13037109 19.39208984 C39.12502298 22.48670355 39.13031577 25.5811721 39.13671875 28.67578125 C39.13605797 30.62760449 39.13477681 32.57942764 39.1328125 34.53125 C39.13483673 35.46352417 39.13686096 36.39579834 39.13894653 37.35632324 C39.13421829 38.64270691 39.13421829 38.64270691 39.12939453 39.95507812 C39.12859894 40.71373169 39.12780334 41.47238525 39.12698364 42.25402832 C39 44 39 44 38 45 C34.7265625 45.4296875 34.7265625 45.4296875 31 45 C29.02267775 43.00987955 27.81301624 41.46280175 26.375 39.125 C25.53295057 37.85303924 24.68910239 36.58226799 23.84375 35.3125 C23.39515625 34.62414062 22.9465625 33.93578125 22.484375 33.2265625 C19.7372123 29.10581844 16.791591 25.1266489 13.875 21.125 C12.74679334 19.56553987 11.61913858 18.00568022 10.4921875 16.4453125 C9.66151136 15.29683664 8.83080387 14.14838346 8 13 C7.97494385 13.93384521 7.9498877 14.86769043 7.92407227 15.82983398 C7.82913072 19.28325189 7.72988742 22.7364896 7.62768555 26.18969727 C7.58428187 27.68639269 7.54261087 29.18313939 7.50268555 30.67993164 C7.44511384 32.82714312 7.38138284 34.97409521 7.31640625 37.12109375 C7.27974854 38.4145874 7.24309082 39.70808105 7.20532227 41.04077148 C7 44 7 44 6 45 C4.02 45 2.04 45 0 45 C0 30.15 0 15.3 0 0 Z " fill="#521E4D" transform="translate(1024,734)"/>
<path d="M0 0 C4.71579382 4.82297095 7.82712195 11.04903669 8.0625 17.875 C7.94729418 24.31605255 6.17274665 30.01860919 1.9140625 34.9296875 C-4.29981072 40.66740185 -9.96774567 42.3779569 -18.37109375 42.18359375 C-25.11250317 41.31461967 -30.46920737 38.25511347 -34.75 33 C-38.91170813 26.69259533 -39.8424298 20.72070957 -38.84765625 13.265625 C-37.13081098 6.21870454 -32.23467363 0.72506082 -26.25 -3.1875 C-16.6406857 -7.03122572 -8.35542139 -5.62384132 0 0 Z M-28.5625 7.875 C-31.99484419 12.16769432 -32.73379639 16.39737554 -32.25 21.8125 C-31.01343228 26.70760255 -28.65529406 29.89024504 -24.5625 32.8125 C-20.12438982 35.23328737 -16.20399963 35.86727828 -11.25 34.8125 C-6.47302571 32.96934886 -3.24225409 30.43230211 -0.75 25.9375 C1.3573214 20.95485562 1.47062537 16.88959666 -0.3125 11.75 C-3.32524105 7.18229583 -7.00889197 3.55953601 -12.25 1.8125 C-19.2595233 1.28347937 -23.64386881 2.90952471 -28.5625 7.875 Z " fill="#521E4D" transform="translate(1280.25,738.1875)"/>
<path d="M0 0 C5.18307256 4.38985601 8.55481126 10.02078211 9.31640625 16.828125 C9.57257238 23.40581011 9.09523048 28.69559283 5 34 C0.38354101 38.86703923 -3.99084659 42.52443146 -10.83203125 43.3359375 C-19.24358425 43.44618066 -24.26364463 42.05701803 -30.75 36.75 C-36.17808775 30.11567053 -37.68915913 24.77815001 -37.37890625 16.12109375 C-36.62701469 9.9276777 -34.26316377 5.92181841 -29.75 1.6875 C-20.45505077 -5.58594642 -10.1575156 -5.78484975 0 0 Z M-27.3125 9.25 C-29.92415138 13.50602448 -31.36189472 17.26259126 -30.6953125 22.3046875 C-29.09306921 28.17957956 -26.11531441 31.74479992 -21 35 C-16.65402177 36.44865941 -12.39624753 36.88893053 -8.0625 35.28125 C-3.0643505 32.60982527 0.20780829 29.37657513 2 24 C2.63096918 18.66262139 2.40695867 14.13058193 -0.609375 9.57421875 C-3.73490715 6.03604612 -7.40691805 3.56306922 -12.05078125 2.5546875 C-18.52506504 2.17754476 -22.7941786 4.8537954 -27.3125 9.25 Z " fill="#521E4D" transform="translate(841,737)"/>
<path d="M0 0 C5.0763214 4.29944203 8.55929088 9.91731966 9.28125 16.60546875 C9.54985422 24.71955442 8.35314771 30.78124663 2.75 36.8125 C-3.29733949 42.31922494 -9.03133603 43.57241951 -17.0625 43.3515625 C-23.80613082 42.54447902 -28.72684349 39.22274684 -33 34 C-37.68638872 27.54661226 -37.94248392 20.7633469 -37 13 C-35.28490456 6.75867635 -31.34920663 2.49713916 -26 -1 C-17.13109442 -5.70993984 -8.60685712 -4.90172767 0 0 Z M-27.3125 9.1875 C-29.94961042 13.58268404 -31.42775912 17.98374977 -30.6953125 23.1484375 C-29.01902062 28.54982246 -25.67362777 31.93027631 -21 35 C-16.65402177 36.44865941 -12.39624753 36.88893053 -8.0625 35.28125 C-3.0643505 32.60982527 0.20780829 29.37657513 2 24 C2.8259395 18.01783822 2.06488224 13.6813722 -1.453125 8.73046875 C-4.90466938 4.86927137 -8.7620952 2.824203 -14 2.5 C-19.56062144 2.81251555 -23.29933061 5.39125869 -27.3125 9.1875 Z " fill="#521E4D" transform="translate(1162,737)"/>
<path d="M0 0 C0.93005859 -0.02900391 1.86011719 -0.05800781 2.81835938 -0.08789062 C10.12247739 -0.15461834 15.37877768 1.24155622 20.9609375 6.05859375 C21.62996094 6.89583984 21.62996094 6.89583984 22.3125 7.75 C22.77398438 8.30558594 23.23546875 8.86117187 23.7109375 9.43359375 C27.92016969 15.88149401 27.75596836 22.8534688 26.9375 30.3125 C24.64002036 36.66261539 19.76712814 40.98613775 14.09277344 44.43310547 C11.43463153 45.51768036 9.3825976 45.53966775 6.515625 45.5078125 C4.97841797 45.49814453 4.97841797 45.49814453 3.41015625 45.48828125 C2.34667969 45.47152344 1.28320312 45.45476563 0.1875 45.4375 C-1.43091797 45.42396484 -1.43091797 45.42396484 -3.08203125 45.41015625 C-5.74241278 45.38661305 -8.40234336 45.35372799 -11.0625 45.3125 C-11.08777124 39.06454325 -11.10533344 32.81659959 -11.11743164 26.56860352 C-11.12247298 24.44131986 -11.12930591 22.31403969 -11.13793945 20.18676758 C-11.15001379 17.13622174 -11.15573014 14.08572155 -11.16015625 11.03515625 C-11.16531754 10.07787125 -11.17047882 9.12058624 -11.17579651 8.1342926 C-11.17587204 7.25345505 -11.17594757 6.37261749 -11.17602539 5.46508789 C-11.178246 4.68565323 -11.18046661 3.90621857 -11.18275452 3.10316467 C-10.86077822 -1.69126304 -3.5994688 0.03635827 0 0 Z M-4.0625 7.3125 C-4.0625 17.8725 -4.0625 28.4325 -4.0625 39.3125 C6.4184566 39.61806298 6.4184566 39.61806298 14.9375 35.3125 C18.4002845 31.75858959 20.78553544 28.29550798 21.04296875 23.2421875 C20.79378412 17.79704187 19.27034971 14.70786099 15.60546875 10.72265625 C9.22019189 5.32433085 5.49444693 7.3125 -4.0625 7.3125 Z " fill="#521E4D" transform="translate(1208.0625,733.6875)"/>
<path d="M0 0 C2.9375 0.1875 2.9375 0.1875 3.9375 1.1875 C3.65019945 3.52694736 3.31813221 5.8614143 2.9375 8.1875 C3.57558594 8.24808594 4.21367188 8.30867187 4.87109375 8.37109375 C5.69738281 8.45488281 6.52367187 8.53867187 7.375 8.625 C8.61056641 8.74681641 8.61056641 8.74681641 9.87109375 8.87109375 C11.9375 9.1875 11.9375 9.1875 12.9375 10.1875 C13.0625 12.6875 13.0625 12.6875 12.9375 15.1875 C11.9375 16.1875 11.9375 16.1875 9.52905273 16.30102539 C8.48692627 16.29578857 7.4447998 16.29055176 6.37109375 16.28515625 C5.24638672 16.28193359 4.12167969 16.27871094 2.96289062 16.27539062 C1.77888672 16.26701172 0.59488281 16.25863281 -0.625 16.25 C-1.81287109 16.24548828 -3.00074219 16.24097656 -4.22460938 16.23632812 C-7.17059412 16.22449686 -10.11655316 16.20656076 -13.0625 16.1875 C-13.0625 19.8175 -13.0625 23.4475 -13.0625 27.1875 C-11.63035156 27.17589844 -10.19820312 27.16429687 -8.72265625 27.15234375 C-6.85677213 27.14296745 -4.99088661 27.13386708 -3.125 27.125 C-2.17947266 27.11662109 -1.23394531 27.10824219 -0.25976562 27.09960938 C1.08891602 27.09477539 1.08891602 27.09477539 2.46484375 27.08984375 C3.71382446 27.08198853 3.71382446 27.08198853 4.98803711 27.07397461 C6.9375 27.1875 6.9375 27.1875 7.9375 28.1875 C8.0625 30.6875 8.0625 30.6875 7.9375 33.1875 C6.9375 34.1875 6.9375 34.1875 4.98803711 34.30102539 C3.7390564 34.29317017 3.7390564 34.29317017 2.46484375 34.28515625 C1.56572266 34.28193359 0.66660156 34.27871094 -0.25976562 34.27539062 C-1.67805664 34.26282227 -1.67805664 34.26282227 -3.125 34.25 C-4.07439453 34.24548828 -5.02378906 34.24097656 -6.00195312 34.23632812 C-8.35549531 34.22450128 -10.70900532 34.20656521 -13.0625 34.1875 C-13.0625 38.8075 -13.0625 43.4275 -13.0625 48.1875 C-4.8125 48.1875 3.4375 48.1875 11.9375 48.1875 C12.2675 49.8375 12.5975 51.4875 12.9375 53.1875 C11.9375 54.1875 11.9375 54.1875 8.97827148 54.30102539 C7.68477783 54.29578857 6.39128418 54.29055176 5.05859375 54.28515625 C3.80232178 54.28265869 2.5460498 54.28016113 1.25170898 54.27758789 C-0.35760498 54.26848389 -1.96691895 54.25937988 -3.625 54.25 C-8.719375 54.229375 -13.81375 54.20875 -19.0625 54.1875 C-19.0625 39.3375 -19.0625 24.4875 -19.0625 9.1875 C-15.1025 9.1875 -11.1425 9.1875 -7.0625 9.1875 C-6.77375 8.07375 -6.485 6.96 -6.1875 5.8125 C-4.46852582 0.27358321 -4.46852582 0.27358321 0 0 Z " fill="#521E4D" transform="translate(963.0625,724.8125)"/>
<path d="M0 0 C1.42022461 -0.04350586 1.42022461 -0.04350586 2.86914062 -0.08789062 C8.86281124 -0.14226447 12.26144861 0.30757477 16.8125 4.3125 C20.1062473 9.03353779 20.72546574 13.71431448 19.8125 19.3125 C17.54150373 23.69227852 14.90311046 27.29621818 10.078125 28.8828125 C5.40048888 29.76995038 0.55084166 29.36400371 -4.1875 29.3125 C-4.1875 34.5925 -4.1875 39.8725 -4.1875 45.3125 C-6.1675 45.3125 -8.1475 45.3125 -10.1875 45.3125 C-11.71834425 43.78165575 -11.31465779 42.40046856 -11.31689453 40.26757812 C-11.32004669 39.40998901 -11.32319885 38.5523999 -11.32644653 37.66882324 C-11.3244223 36.73654907 -11.32239807 35.8042749 -11.3203125 34.84375 C-11.32126923 33.89310669 -11.32222595 32.94246338 -11.32321167 31.9630127 C-11.32389357 29.94881118 -11.32203862 27.93460748 -11.31787109 25.92041016 C-11.31252298 22.82579645 -11.31781577 19.7313279 -11.32421875 16.63671875 C-11.32355797 14.68489551 -11.32227681 12.73307236 -11.3203125 10.78125 C-11.32233673 9.84897583 -11.32436096 8.91670166 -11.32644653 7.95617676 C-11.32329437 7.09858765 -11.32014221 6.24099854 -11.31689453 5.35742188 C-11.31609894 4.59876831 -11.31530334 3.84011475 -11.31448364 3.05847168 C-10.96855424 -1.69791217 -3.5653538 0.03567732 0 0 Z M-4.1875 7.3125 C-4.1875 12.2625 -4.1875 17.2125 -4.1875 22.3125 C3.88859978 23.05888411 3.88859978 23.05888411 11.0625 20.1875 C13.12478623 16.79945834 13.55773902 15.20430376 12.8125 11.3125 C11.25712579 9.0164749 11.25712579 9.0164749 8.8125 7.3125 C5.53849522 6.82986211 5.53849522 6.82986211 2.0625 7.0625 C-1.03125 7.18625 -1.03125 7.18625 -4.1875 7.3125 Z " fill="#521E4D" transform="translate(778.1875,733.6875)"/>
<path d="M0 0 C-0.50603992 2.16874252 -0.99983813 3.99967627 -2 6 C-4.35825811 5.45578659 -6.44465955 4.81386344 -8.6875 3.875 C-13.07089141 2.71712302 -16.64318498 2.69144271 -21 4 C-25.12683729 6.54019341 -28.18655115 9.45782387 -30 14 C-30.78671167 19.61936904 -30.22202478 24.22251498 -27 29 C-22.52187302 33.14226746 -19.17733454 34.26464159 -13.05859375 34.2421875 C-10.70753972 34.08373746 -10.70753972 34.08373746 -7.75 32.375 C-5 31 -5 31 -2.6875 31.5625 C-0.66345712 33.28668468 -0.34619039 34.40357204 0 37 C-6.91595059 41.76432152 -11.71710336 42.62819722 -20 42 C-26.36112199 40.0916634 -31.67803012 36.5649067 -35.328125 30.9609375 C-38.79017115 24.0612258 -39.24317952 17.08394684 -36.8125 9.75 C-33.86973715 2.96111453 -29.48375323 -0.81706659 -23 -4 C-15.01001159 -7.09289874 -6.78592822 -4.52395214 0 0 Z " fill="#521E4D" transform="translate(1018,738)"/>
<path d="M0 0 C0.495 1.485 0.495 1.485 1 3 C-0.4375 5.1875 -0.4375 5.1875 -2 7 C-2.54527344 6.77183594 -3.09054687 6.54367187 -3.65234375 6.30859375 C-9.38042359 4.1250693 -14.02140663 3.34490918 -20 5 C-24.39423614 7.27849281 -26.99126981 9.45392642 -29 14 C-30.31439595 18.97592752 -30.04702603 22.4796023 -28.09375 27.13671875 C-25.94833171 30.79159205 -22.77626788 33.11186606 -19 35 C-13.09090011 35.61454639 -9.25660823 34.87861879 -4 32 C-3.01 32.33 -2.02 32.66 -1 33 C-0.505 35.97 -0.505 35.97 0 39 C-6.65823765 43.09737701 -12.22159229 44.0364231 -20 43 C-26.78715496 40.90906429 -31.66303794 36.55276634 -35.3125 30.5 C-38.17146625 24.338636 -38.12205806 17.08322903 -36.33984375 10.59765625 C-33.50762967 4.20984874 -28.44306604 -0.17986896 -22.0625 -2.875 C-14.1792871 -5.40186479 -7.11313263 -4.14586093 0 0 Z " fill="#521E4D" transform="translate(1122,737)"/>
<path d="M0 0 C4.36775158 3.14884416 7.96773395 6.77820184 9.6875 11.9375 C10.1954081 18.15937421 10.44104356 23.68253901 6.6875 28.9375 C1.87878276 33.53714258 -1.99369478 35.96049578 -8.625 36.3125 C-14.82344739 36.15753882 -19.39057299 33.91000404 -23.6875 29.5 C-27.15464603 24.03257742 -28.17058474 19.36240946 -27.3125 12.9375 C-25.44982282 7.02138327 -22.32841212 3.45931064 -17.3125 -0.0625 C-11.70864002 -1.93045333 -5.60508879 -1.79785867 0 0 Z M-18.3125 7.9375 C-21.51494241 11.44017139 -21.93964225 15.03861383 -21.80859375 19.6484375 C-20.93658526 23.67203573 -18.35451594 26.28952757 -15.3125 28.9375 C-11.78910802 30.69919599 -8.14849841 30.60190495 -4.3125 29.9375 C-0.56143936 27.83634197 1.94808455 25.1390501 4.1875 21.5 C5.09880364 16.82956884 4.47825971 13.27570873 2.0625 9.1875 C-4.84670126 2.64194091 -10.87359504 3.22619352 -18.3125 7.9375 Z " fill="#521E4D" transform="translate(1241.3125,684.0625)"/>
<path d="M0 0 C5.38697265 3.15927719 8.64594858 7.10972074 10.640625 13.09375 C11.1167835 20.23612743 10.08854194 25.18271364 5.328125 30.84375 C0.08332258 35.23474737 -4.12483366 36.67532951 -10.8984375 36.44140625 C-16.20098025 35.69231688 -19.77450569 32.99047843 -23.234375 28.96875 C-27.38597638 23.35187754 -26.95085934 17.92497756 -26.359375 11.09375 C-24.0738557 6.17109305 -20.64242794 3.28325751 -16.359375 0.09375 C-11.10193829 -1.6587289 -5.23639507 -2.01133056 0 0 Z M-18.734375 9.28125 C-20.8312507 12.91045794 -21.69399767 15.89503223 -21.359375 20.09375 C-20.10318867 23.81058368 -18.09366768 26.46144242 -15.109375 29.03125 C-11.45546528 30.44298785 -8.18767709 30.76933272 -4.359375 30.09375 C0.00412722 27.87083378 2.73606838 25.64352416 4.640625 21.09375 C5.17777795 16.08032251 4.76590058 13.08117057 1.640625 9.09375 C-5.03912772 2.59453114 -11.86851135 2.95742821 -18.734375 9.28125 Z " fill="#521E4D" transform="translate(1011.359375,683.90625)"/>
<path d="M0 0 C5 0 5 0 6.59765625 1.1875 C7.08105469 1.785625 7.56445312 2.38375 8.0625 3 C8.64257812 3.7115625 9.22265625 4.423125 9.8203125 5.15625 C14.60377715 11.3970426 19.31553168 17.68386294 24 24 C24.33 16.41 24.66 8.82 25 1 C26.65 0.67 28.3 0.34 30 0 C31 1 31 1 31.11352539 4.32641602 C31.11336629 5.80225556 31.10767314 7.27810069 31.09765625 8.75390625 C31.0962413 9.52935287 31.09482635 10.3047995 31.09336853 11.10374451 C31.08775345 13.59003494 31.07519846 16.0762366 31.0625 18.5625 C31.05748694 20.24413933 31.0529237 21.92578006 31.04882812 23.60742188 C31.03777913 27.73831566 31.02050445 31.86914276 31 36 C25.27539062 36.23925781 25.27539062 36.23925781 22.796875 34.0859375 C21.78367187 32.74402344 21.78367187 32.74402344 20.75 31.375 C19.99332031 30.38628906 19.23664062 29.39757812 18.45703125 28.37890625 C17.63489492 27.25488387 16.81605811 26.128443 16 25 C15.54415527 24.37464355 15.08831055 23.74928711 14.61865234 23.10498047 C11.70492754 19.09672953 8.85049253 15.054926 6 11 C5.67 19.25 5.34 27.5 5 36 C3.35 36 1.7 36 0 36 C0 24.12 0 12.24 0 0 Z " fill="#521E4D" transform="translate(783,683)"/>
<path d="M0 0 C0.75603516 -0.020625 1.51207031 -0.04125 2.29101562 -0.0625 C7.20537442 -0.09659789 10.58951018 0.47221114 14.8125 3.25 C17.59419 6.09062411 18.26334604 8.18039436 18.3125 12.125 C18.22375618 15.87442657 17.73213656 17.98793366 15.3125 20.875 C14.4875 21.65875 13.6625 22.4425 12.8125 23.25 C13.1734375 23.93707031 13.534375 24.62414062 13.90625 25.33203125 C14.3703125 26.23308594 14.834375 27.13414062 15.3125 28.0625 C15.7765625 28.95582031 16.240625 29.84914063 16.71875 30.76953125 C17.8125 33.25 17.8125 33.25 17.8125 36.25 C15.8325 36.25 13.8525 36.25 11.8125 36.25 C11.56757812 35.46753906 11.32265625 34.68507813 11.0703125 33.87890625 C9.89281301 30.69153694 8.77679436 28.03023202 6.8125 25.25 C3.20441882 23.9059209 0.74328929 24.09276843 -3.1875 24.25 C-3.1875 28.21 -3.1875 32.17 -3.1875 36.25 C-5.1675 36.25 -7.1475 36.25 -9.1875 36.25 C-9.21215098 31.28377651 -9.23033649 26.31758834 -9.24243164 21.35131836 C-9.2474719 19.66055684 -9.25430405 17.96979971 -9.26293945 16.27905273 C-9.27501857 13.85399293 -9.28073123 11.42899056 -9.28515625 9.00390625 C-9.29031754 8.24348526 -9.29547882 7.48306427 -9.30079651 6.69960022 C-9.30099238 4.8826743 -9.24947277 3.06586873 -9.1875 1.25 C-7.10837421 -0.82912579 -2.85404059 0.01897949 0 0 Z M-3.1875 6.25 C-3.1875 10.21 -3.1875 14.17 -3.1875 18.25 C2.83558903 18.59374846 2.83558903 18.59374846 8.8125 18.25 C11.63018639 15.99066274 11.63018639 15.99066274 12.8125 13.25 C11.73848892 10.33482708 11.03439824 8.47189824 8.8125 6.25 C4.80055634 5.97216457 0.83802638 6.1643505 -3.1875 6.25 Z " fill="#521E4D" transform="translate(1179.1875,682.75)"/>
<path d="M0 0 C0.75603516 -0.020625 1.51207031 -0.04125 2.29101562 -0.0625 C7.21008749 -0.09663059 10.55634521 0.52036881 14.8125 3.25 C17.99706394 7.5645705 18.16598589 11.07182233 17.40625 16.19140625 C16.58674334 19.0327221 15.15864785 20.50930966 12.8125 22.25 C13.81693142 25.49508611 14.91551294 28.45602588 16.4375 31.5 C17.8125 34.25 17.8125 34.25 17.8125 36.25 C15.8325 36.25 13.8525 36.25 11.8125 36.25 C10.97430842 34.62750059 10.1420884 33.00191503 9.3125 31.375 C8.8484375 30.47007812 8.384375 29.56515625 7.90625 28.6328125 C6.8125 26.25 6.8125 26.25 6.8125 24.25 C3.1825 24.25 -0.4475 24.25 -4.1875 24.25 C-4.1875 28.21 -4.1875 32.17 -4.1875 36.25 C-5.8375 36.25 -7.4875 36.25 -9.1875 36.25 C-9.21215098 31.28377651 -9.23033649 26.31758834 -9.24243164 21.35131836 C-9.2474719 19.66055684 -9.25430405 17.96979971 -9.26293945 16.27905273 C-9.27501857 13.85399293 -9.28073123 11.42899056 -9.28515625 9.00390625 C-9.29031754 8.24348526 -9.29547882 7.48306427 -9.30079651 6.69960022 C-9.30099238 4.8826743 -9.24947277 3.06586873 -9.1875 1.25 C-7.10837421 -0.82912579 -2.85404059 0.01897949 0 0 Z M-4.1875 6.25 C-4.1875 10.21 -4.1875 14.17 -4.1875 18.25 C-2.29 18.3325 -0.3925 18.415 1.5625 18.5 C3.16351562 18.56960938 3.16351562 18.56960938 4.796875 18.640625 C7.90619958 18.49230936 7.90619958 18.49230936 10.20703125 16.4296875 C12.13046466 14.28165813 12.13046466 14.28165813 11.75 11.125 C11.04555313 7.95825068 11.04555313 7.95825068 7.8125 6.25 C3.79750069 5.98125841 -0.15887407 6.16336288 -4.1875 6.25 Z " fill="#521E4D" transform="translate(1266.1875,682.75)"/>
<path d="M0 0 C11.22 0 22.44 0 34 0 C34 1.98 34 3.96 34 6 C33.67 6.33 33.34 6.66 33 7 C28.71 7 24.42 7 20 7 C20 19.54 20 32.08 20 45 C18.02 45 16.04 45 14 45 C13 44 13 44 12.88647461 40.48999023 C12.88663374 38.92951578 12.89232858 37.36903607 12.90234375 35.80859375 C12.9037587 34.98875504 12.90517365 34.16891632 12.90663147 33.32423401 C12.91224711 30.69528618 12.92480221 28.06642227 12.9375 25.4375 C12.94251299 23.65950643 12.94707624 21.88151154 12.95117188 20.10351562 C12.96222161 15.73564455 12.97949669 11.36783652 13 7 C12.14535156 7.01160156 11.29070313 7.02320313 10.41015625 7.03515625 C9.30542969 7.04417969 8.20070313 7.05320312 7.0625 7.0625 C5.96035156 7.07410156 4.85820313 7.08570313 3.72265625 7.09765625 C1 7 1 7 0 6 C0 4.02 0 2.04 0 0 Z " fill="#521E4D" transform="translate(904,734)"/>
<path d="M0 0 C1.64453125 0.984375 1.64453125 0.984375 3.95703125 3.234375 C3.95703125 4.554375 3.95703125 5.874375 3.95703125 7.234375 C2.33203125 7.921875 2.33203125 7.921875 -0.04296875 8.234375 C-0.99171875 7.739375 -1.94046875 7.244375 -2.91796875 6.734375 C-6.55217077 4.98995803 -8.21694155 5.23232026 -12.04296875 6.234375 C-12.37296875 7.554375 -12.70296875 8.874375 -13.04296875 10.234375 C-12.48609375 10.47671875 -11.92921875 10.7190625 -11.35546875 10.96875 C2.99317583 17.27051958 2.99317583 17.27051958 5.95703125 20.234375 C6.70874161 24.68345142 6.52495791 28.24576193 4.26953125 32.171875 C-0.12418814 36.0905977 -4.09725223 36.62568537 -9.828125 36.4921875 C-13.88667122 36.01976413 -16.76513936 34.18244197 -19.98046875 31.796875 C-21.04296875 30.234375 -21.04296875 30.234375 -20.91796875 28.109375 C-20.62921875 27.490625 -20.34046875 26.871875 -20.04296875 26.234375 C-19.05296875 25.904375 -18.06296875 25.574375 -17.04296875 25.234375 C-16.15609375 25.87375 -15.26921875 26.513125 -14.35546875 27.171875 C-10.03491144 29.86203332 -8.04846874 29.80877664 -3.04296875 29.234375 C-1.03372375 27.90078506 -1.03372375 27.90078506 -0.04296875 26.234375 C-0.52711912 24.26277281 -0.52711912 24.26277281 -2.04296875 22.234375 C-4.53760975 21.07811034 -6.89414991 20.12000064 -9.48046875 19.234375 C-18.04847405 16.28380364 -18.04847405 16.28380364 -20.04296875 12.234375 C-20.45096873 9.05979983 -20.01929418 6.27493133 -19.04296875 3.234375 C-14.24912901 -1.93792577 -6.46678358 -2.42349824 0 0 Z " fill="#521E4D" transform="translate(840.04296875,683.765625)"/>
<path d="M0 0 C1.00023193 0.00523682 2.00046387 0.01047363 3.03100586 0.01586914 C4.1105957 0.0190918 5.19018555 0.02231445 6.30249023 0.02563477 C8.00695313 0.03820312 8.00695313 0.03820312 9.74584961 0.05102539 C11.45611328 0.05779297 11.45611328 0.05779297 13.20092773 0.06469727 C16.02845312 0.07652792 18.85587601 0.09301129 21.68334961 0.11352539 C22.06553728 1.76967196 22.39730063 3.43809563 22.68334961 5.11352539 C21.68334961 6.11352539 21.68334961 6.11352539 19.73388672 6.22705078 C18.90123291 6.22181396 18.0685791 6.21657715 17.21069336 6.21118164 C16.31157227 6.20795898 15.41245117 6.20473633 14.48608398 6.20141602 C13.54055664 6.19303711 12.5950293 6.1846582 11.62084961 6.17602539 C10.67145508 6.17151367 9.72206055 6.16700195 8.74389648 6.16235352 C6.3903543 6.15052667 4.03684429 6.1325906 1.68334961 6.11352539 C1.68334961 9.08352539 1.68334961 12.05352539 1.68334961 15.11352539 C6.96334961 15.11352539 12.24334961 15.11352539 17.68334961 15.11352539 C18.01334961 16.43352539 18.34334961 17.75352539 18.68334961 19.11352539 C17.68334961 20.11352539 17.68334961 20.11352539 14.08569336 20.21118164 C12.59738094 20.20450759 11.10908529 20.19254722 9.62084961 20.17602539 C8.86223633 20.17151367 8.10362305 20.16700195 7.32202148 20.16235352 C5.4424309 20.15053219 3.56288062 20.13259617 1.68334961 20.11352539 C1.68334961 23.74352539 1.68334961 27.37352539 1.68334961 31.11352539 C8.28334961 31.11352539 14.88334961 31.11352539 21.68334961 31.11352539 C22.01334961 32.76352539 22.34334961 34.41352539 22.68334961 36.11352539 C14.10334961 36.11352539 5.52334961 36.11352539 -3.31665039 36.11352539 C-3.33955995 31.14724105 -3.35948682 26.18113876 -3.37158203 21.21484375 C-3.37662229 19.52408224 -3.38345444 17.8333251 -3.39208984 16.14257812 C-3.40416896 13.71751832 -3.40988162 11.29251595 -3.41430664 8.86743164 C-3.41946793 8.10701065 -3.42462921 7.34658966 -3.4299469 6.56312561 C-3.43014277 4.74619969 -3.37862316 2.92939412 -3.31665039 1.11352539 C-2.31665039 0.11352539 -2.31665039 0.11352539 0 0 Z " fill="#521E4D" transform="translate(1143.316650390625,682.886474609375)"/>
<path d="M0 0 C2.44119737 1.50501003 3.81588109 2.80891745 4.859375 5.4921875 C4.900625 6.0696875 4.941875 6.6471875 4.984375 7.2421875 C1.53873484 8.35695343 0.34661775 8.42716252 -2.953125 6.7421875 C-6.54904671 4.98091973 -8.21560925 5.24694528 -12.015625 6.2421875 C-12.345625 7.5621875 -12.675625 8.8821875 -13.015625 10.2421875 C-12.45875 10.48453125 -11.901875 10.726875 -11.328125 10.9765625 C3.02051958 17.27833208 3.02051958 17.27833208 5.984375 20.2421875 C6.73608536 24.69126392 6.55230166 28.25357443 4.296875 32.1796875 C-0.04554347 36.05265532 -4.05093819 36.68409274 -9.73046875 36.5703125 C-14.32323459 35.91083843 -17.75821585 33.49959665 -21.015625 30.2421875 C-20.828125 28.1796875 -20.828125 28.1796875 -20.015625 26.2421875 C-19.025625 25.9121875 -18.035625 25.5821875 -17.015625 25.2421875 C-16.12875 25.8815625 -15.241875 26.5209375 -14.328125 27.1796875 C-10.00756769 29.86984582 -8.02112499 29.81658914 -3.015625 29.2421875 C-0.92578269 28.15543756 -0.92578269 28.15543756 -0.015625 26.2421875 C-0.015625 24.9221875 -0.015625 23.6021875 -0.015625 22.2421875 C-0.6446875 22.07203125 -1.27375 21.901875 -1.921875 21.7265625 C-16.43146658 17.61842512 -16.43146658 17.61842512 -20.015625 12.2421875 C-20.51819248 7.61856666 -19.87793192 4.9222964 -17.015625 1.2421875 C-12.12445841 -1.83903198 -5.37310414 -2.02012055 0 0 Z " fill="#521E4D" transform="translate(1062.015625,683.7578125)"/>
<path d="M0 0 C1.2065625 0.0309375 1.2065625 0.0309375 2.4375 0.0625 C2.4468457 0.79364014 2.45619141 1.52478027 2.46582031 2.27807617 C2.51962664 5.60272718 2.60325504 8.92598678 2.6875 12.25 C2.70167969 13.40048828 2.71585938 14.55097656 2.73046875 15.73632812 C2.76269531 16.84814453 2.79492188 17.95996094 2.828125 19.10546875 C2.84907227 20.12664795 2.87001953 21.14782715 2.89160156 22.19995117 C3.57204264 25.76800648 4.93405288 27.47377379 7.4375 30.0625 C10.40998991 31.20576535 11.9709466 31.17358414 15.0625 30.4375 C18.0601997 28.70198965 18.89769332 27.1483628 20.4375 24.0625 C20.93366505 21.27011312 20.93366505 21.27011312 20.94921875 18.32421875 C20.98466797 17.25751953 21.02011719 16.19082031 21.05664062 15.09179688 C21.07919922 13.98900391 21.10175781 12.88621094 21.125 11.75 C21.15916016 10.62787109 21.19332031 9.50574219 21.22851562 8.34960938 C21.31079601 5.58733938 21.38001281 2.82537887 21.4375 0.0625 C23.0875 0.0625 24.7375 0.0625 26.4375 0.0625 C26.55397041 4.60394994 26.62484502 9.14501394 26.6875 13.6875 C26.72101563 14.97269531 26.75453125 16.25789062 26.7890625 17.58203125 C26.91204561 29.44990126 26.91204561 29.44990126 22.4375 34.0625 C17.68959157 37.37499425 13.05873901 37.94234611 7.4375 37.0625 C3.64316319 35.70267987 1.00717519 33.82206691 -1.4375 30.5625 C-3.25935748 26.51392783 -3.68997247 23.1083864 -3.6953125 18.67578125 C-3.69660156 17.65548828 -3.69789062 16.63519531 -3.69921875 15.58398438 C-3.69341797 13.99553711 -3.69341797 13.99553711 -3.6875 12.375 C-3.69136719 11.30443359 -3.69523437 10.23386719 -3.69921875 9.13085938 C-3.69792969 8.11443359 -3.69664063 7.09800781 -3.6953125 6.05078125 C-3.69418457 5.11790283 -3.69305664 4.18502441 -3.69189453 3.22387695 C-3.50224612 0.05603283 -3.19642809 0.07796166 0 0 Z " fill="#521E4D" transform="translate(1076.5625,682.9375)"/>
<path d="M0 0 C1.67542976 0.28604898 3.34385343 0.61781233 5 1 C5.0093457 1.70084717 5.01869141 2.40169434 5.02832031 3.1237793 C5.08214544 6.31239025 5.16576936 9.49955333 5.25 12.6875 C5.26417969 13.79029297 5.27835938 14.89308594 5.29296875 16.02929688 C5.44126184 22.42243379 5.44126184 22.42243379 7.89453125 28.2109375 C10.38996876 30.33136492 11.72898479 30.92021914 15 31 C18.28979279 30.216716 19.61944561 29.52436153 21.61645508 26.77270508 C23.14900638 23.70138248 23.42048104 21.67400907 23.51171875 18.26171875 C23.54716797 17.19501953 23.58261719 16.12832031 23.61914062 15.02929688 C23.64169922 13.92650391 23.66425781 12.82371094 23.6875 11.6875 C23.72166016 10.56537109 23.75582031 9.44324219 23.79101562 8.28710938 C23.87329601 5.52483938 23.94251281 2.76287887 24 0 C25.65 0 27.3 0 29 0 C29.11647041 4.54144994 29.18734502 9.08251394 29.25 13.625 C29.28351562 14.91019531 29.31703125 16.19539062 29.3515625 17.51953125 C29.47454561 29.38740126 29.47454561 29.38740126 25 34 C20.23525117 37.32424337 15.63582107 37.85420981 10 37 C5.74870442 35.67459609 2.97528755 33.53032534 0.8203125 29.62109375 C-1.80445269 24.09507387 -1.47468484 18.56333894 -1.3125 12.5625 C-1.30283203 11.46228516 -1.29316406 10.36207031 -1.28320312 9.22851562 C-1.16870301 1.16870301 -1.16870301 1.16870301 0 0 Z " fill="#521E4D" transform="translate(923,683)"/>
<path d="M0 0 C1.98 0 3.96 0 6 0 C6 12.87 6 25.74 6 39 C13.26 39 20.52 39 28 39 C28 40.98 28 42.96 28 45 C24.03069011 45.02465881 20.06140966 45.04284023 16.09204102 45.05493164 C14.74079614 45.05997057 13.38955674 45.06680177 12.03833008 45.07543945 C10.09979566 45.08752419 8.161222 45.09269828 6.22265625 45.09765625 C4.47094116 45.10551147 4.47094116 45.10551147 2.68383789 45.11352539 C0 45 0 45 -1 44 C-1.09785341 42.65455673 -1.12797985 41.30407437 -1.12939453 39.95507812 C-1.13254669 39.09748901 -1.13569885 38.2398999 -1.13894653 37.35632324 C-1.1369223 36.42404907 -1.13489807 35.4917749 -1.1328125 34.53125 C-1.13376923 33.58060669 -1.13472595 32.62996338 -1.13571167 31.6505127 C-1.13639357 29.63631118 -1.13453862 27.62210748 -1.13037109 25.60791016 C-1.12502298 22.51329645 -1.13031577 19.4188279 -1.13671875 16.32421875 C-1.13605797 14.37239551 -1.13477681 12.42057236 -1.1328125 10.46875 C-1.13483673 9.53647583 -1.13686096 8.60420166 -1.13894653 7.64367676 C-1.13579437 6.78608765 -1.13264221 5.92849854 -1.12939453 5.04492188 C-1.12859894 4.28626831 -1.12780334 3.52761475 -1.12698364 2.74597168 C-1 1 -1 1 0 0 Z " fill="#521E4D" transform="translate(858,734)"/>
<path d="M0 0 C16 0 16 0 21 3 C24.48461095 6.67565322 24.5596034 9.69243876 24.4296875 14.5859375 C23.77649986 18.25566441 21.92448816 19.84144922 19 22 C16.23547967 23.38226016 13.9538637 23.09525387 10.875 23.0625 C7.966875 23.0315625 7.966875 23.0315625 5 23 C5 27.29 5 31.58 5 36 C3.35 36 1.7 36 0 36 C0 24.12 0 12.24 0 0 Z M5 6 C5 9.96 5 13.92 5 18 C12.02053429 18.41112965 12.02053429 18.41112965 18 15 C19.07642709 13.11149645 19.07642709 13.11149645 19 11 C18.00974907 8.33393981 17.5722047 7.28610235 15 6 C13.29297265 5.93003986 11.58331997 5.91559846 9.875 5.9375 C8.26625 5.958125 6.6575 5.97875 5 6 Z " fill="#521E4D" transform="translate(1110,683)"/>
<path d="M0 0 C1.1653125 -0.00128906 2.330625 -0.00257813 3.53125 -0.00390625 C4.7584375 -0.00003906 5.985625 0.00382813 7.25 0.0078125 C9.09078125 0.00201172 9.09078125 0.00201172 10.96875 -0.00390625 C12.71671875 -0.00197266 12.71671875 -0.00197266 14.5 0 C15.57765625 0.00112793 16.6553125 0.00225586 17.765625 0.00341797 C20.25 0.1328125 20.25 0.1328125 21.25 1.1328125 C21.25 2.7828125 21.25 4.4328125 21.25 6.1328125 C17.62 6.1328125 13.99 6.1328125 10.25 6.1328125 C10.25 16.0328125 10.25 25.9328125 10.25 36.1328125 C8.27 36.1328125 6.29 36.1328125 4.25 36.1328125 C4.25 26.2328125 4.25 16.3328125 4.25 6.1328125 C0.62 6.1328125 -3.01 6.1328125 -6.75 6.1328125 C-6.75 -0.76378761 -6.22197987 0.00651224 0 0 Z " fill="#521E4D" transform="translate(855.75,682.8671875)"/>
<path d="M0 0 C8.91 0 17.82 0 27 0 C27.33 1.65 27.66 3.3 28 5 C27 6 27 6 24.71484375 6.09765625 C23.34005859 6.08025391 23.34005859 6.08025391 21.9375 6.0625 C21.01839844 6.05347656 20.09929688 6.04445313 19.15234375 6.03515625 C18.44207031 6.02355469 17.73179687 6.01195312 17 6 C17.00785522 7.30988892 17.00785522 7.30988892 17.01586914 8.64624023 C17.03287751 11.87589273 17.04543369 15.10552245 17.05493164 18.33520508 C17.0599708 19.73495228 17.06680216 21.1346942 17.07543945 22.53442383 C17.0875232 24.54245777 17.09269807 26.55052957 17.09765625 28.55859375 C17.10551147 30.37315063 17.10551147 30.37315063 17.11352539 32.22436523 C17 35 17 35 16 36 C14.35 36 12.7 36 11 36 C11 26.1 11 16.2 11 6 C7.37 6 3.74 6 0 6 C0 4.02 0 2.04 0 0 Z " fill="#521E4D" transform="translate(956,683)"/>
<path d="M0 0 C2.31 0 4.62 0 7 0 C7.02527124 6.24795675 7.04283344 12.49590041 7.05493164 18.74389648 C7.05997298 20.87118014 7.06680591 22.99846031 7.07543945 25.12573242 C7.08751379 28.17627826 7.09323014 31.22677845 7.09765625 34.27734375 C7.10281754 35.23462875 7.10797882 36.19191376 7.11329651 37.1782074 C7.11337204 38.05904495 7.11344757 38.93988251 7.11352539 39.84741211 C7.115746 40.62684677 7.11796661 41.40628143 7.12025452 42.20933533 C7 44 7 44 6 45 C4.02 45 2.04 45 0 45 C0 30.15 0 15.3 0 0 Z " fill="#521E4D" transform="translate(1071,734)"/>
<path d="M0 0 C1.98 0 3.96 0 6 0 C6 14.85 6 29.7 6 45 C4.02 45 2.04 45 0 45 C-1.53084425 43.46915575 -1.12715779 42.08796856 -1.12939453 39.95507812 C-1.13254669 39.09748901 -1.13569885 38.2398999 -1.13894653 37.35632324 C-1.1369223 36.42404907 -1.13489807 35.4917749 -1.1328125 34.53125 C-1.13376923 33.58060669 -1.13472595 32.62996338 -1.13571167 31.6505127 C-1.13639357 29.63631118 -1.13453862 27.62210748 -1.13037109 25.60791016 C-1.12502298 22.51329645 -1.13031577 19.4188279 -1.13671875 16.32421875 C-1.13605797 14.37239551 -1.13477681 12.42057236 -1.1328125 10.46875 C-1.13483673 9.53647583 -1.13686096 8.60420166 -1.13894653 7.64367676 C-1.13579437 6.78608765 -1.13264221 5.92849854 -1.12939453 5.04492188 C-1.12859894 4.28626831 -1.12780334 3.52761475 -1.12698364 2.74597168 C-1 1 -1 1 0 0 Z " fill="#521E4D" transform="translate(892,734)"/>
<path d="M0 0 C8.91 0 17.82 0 27 0 C27 1.98 27 3.96 27 6 C23.37 6 19.74 6 16 6 C16 15.9 16 25.8 16 36 C14.35 36 12.7 36 11 36 C11 26.1 11 16.2 11 6 C7.37 6 3.74 6 0 6 C0 4.02 0 2.04 0 0 Z " fill="#521E4D" transform="translate(891,683)"/>
<path d="M0 0 C1.65 0 3.3 0 5 0 C5 11.88 5 23.76 5 36 C3.02 36 1.04 36 -1 36 C-1.02465098 31.03377651 -1.04283649 26.06758834 -1.05493164 21.10131836 C-1.0599719 19.41055684 -1.06680405 17.71979971 -1.07543945 16.02905273 C-1.08751857 13.60399293 -1.09323123 11.17899056 -1.09765625 8.75390625 C-1.10281754 7.99348526 -1.10797882 7.23306427 -1.11329651 6.44960022 C-1.11349238 4.6326743 -1.06197277 2.81586873 -1 1 C-0.67 0.67 -0.34 0.34 0 0 Z " fill="#521E4D" transform="translate(771,683)"/>
<path d="M0 0 C1.65 0 3.3 0 5 0 C6.7329298 1.7329298 6.12820046 3.96214336 6.13894653 6.27148438 C6.1369223 7.00689453 6.13489807 7.74230469 6.1328125 8.5 C6.13376923 9.25087891 6.13472595 10.00175781 6.13571167 10.77539062 C6.13639338 12.36588627 6.13453972 13.95638467 6.13037109 15.546875 C6.12502267 17.98964655 6.13031634 20.43223421 6.13671875 22.875 C6.13605797 24.41666707 6.1347768 25.95833403 6.1328125 27.5 C6.13483673 28.23541016 6.13686096 28.97082031 6.13894653 29.72851562 C6.11495161 34.88504839 6.11495161 34.88504839 5 36 C3.35 36 1.7 36 0 36 C0 24.12 0 12.24 0 0 Z " fill="#521E4D" transform="translate(1203,683)"/>
<path d="M0 0 C1.65 0.33 3.3 0.66 5 1 C5 12.55 5 24.1 5 36 C3.02 36 1.04 36 -1 36 C-1.02465098 31.03377651 -1.04283649 26.06758834 -1.05493164 21.10131836 C-1.0599719 19.41055684 -1.06680405 17.71979971 -1.07543945 16.02905273 C-1.08751857 13.60399293 -1.09323123 11.17899056 -1.09765625 8.75390625 C-1.10281754 7.99348526 -1.10797882 7.23306427 -1.11329651 6.44960022 C-1.11349238 4.6326743 -1.06197277 2.81586873 -1 1 C-0.67 0.67 -0.34 0.34 0 0 Z " fill="#521E4D" transform="translate(882,683)"/>
<path d="M0 0 C0.66 0.33 1.32 0.66 2 1 C1.52280518 1.45101074 1.04561035 1.90202148 0.55395508 2.36669922 C-25.04375113 26.75102562 -43.01256243 55.3177053 -51 90 C-51.33 90 -51.66 90 -52 90 C-51.52594637 83.18694077 -50.43441748 76.90373476 -48.4375 70.375 C-48.17501465 69.51326172 -47.9125293 68.65152344 -47.64208984 67.76367188 C-43.49186296 54.70840217 -37.04985044 43.0630856 -29 32 C-28.23558594 30.9378125 -27.47117187 29.875625 -26.68359375 28.78125 C-18.83430946 18.20324457 -9.44509667 9.14081881 0 0 Z " fill="#7B1B48" transform="translate(659,231)"/>
<path d="M0 0 C2.875 0.3125 2.875 0.3125 3.875 1.3125 C3.57561356 6.50186494 2.76641859 9.7453663 -1.125 13.3125 C-3.8125 13.6875 -3.8125 13.6875 -6.125 13.3125 C-6.455 12.9825 -6.785 12.6525 -7.125 12.3125 C-6.86805441 8.3940798 -6.62078088 5.35624922 -4.9375 1.8125 C-3.125 0.3125 -3.125 0.3125 0 0 Z " fill="#EBE5EB" transform="translate(963.125,724.6875)"/>
<path d="M0 0 C1.98 0 3.96 0 6 0 C4.94124926 3.40312738 3.99097846 6.01353231 2 9 C-0.625 9.1875 -0.625 9.1875 -3 9 C-2.01 6.03 -1.02 3.06 0 0 Z " fill="#5B2A56" transform="translate(960,727)"/>
</svg>
